<?xml version="1.0" standalone="no"?>
<!DOCTYPE svg PUBLIC "-//W3C//DTD SVG 20010904//EN"
 "http://www.w3.org/TR/2001/REC-SVG-20010904/DTD/svg10.dtd">
<svg version="1.0" xmlns="http://www.w3.org/2000/svg"
 width="2588.000000pt" height="5340.000000pt" viewBox="0 0 2588.000000 5340.000000"
 preserveAspectRatio="xMidYMid meet">

<g transform="translate(0.000000,5340.000000) scale(0.100000,-0.100000)"
fill="#000000" stroke="none">
<path d="M0 26700 l0 -26700 12940 0 12940 0 0 26700 0 26700 -12940 0 -12940
0 0 -26700z m14535 -4701 c30 -24 30 -28 0 -134 -37 -130 -47 -373 -30 -703 8
-151 7 -153 -15 -177 -13 -14 -31 -25 -40 -25 -23 0 -70 58 -70 87 0 13 -5 34
-11 45 -7 13 -11 112 -11 284 1 145 -3 264 -7 264 -4 0 -22 -5 -39 -11 -54
-18 -120 13 -142 68 -3 8 -19 0 -45 -25 -34 -33 -45 -37 -88 -36 l-49 0 6 -30
c3 -17 12 -67 21 -111 23 -115 35 -223 41 -360 l6 -121 -27 -14 c-23 -12 -28
-12 -45 6 -23 22 -60 117 -60 151 0 12 -4 24 -9 27 -5 3 -11 23 -14 43 -3 21
-13 76 -22 123 -16 82 -24 136 -44 305 -5 44 -14 104 -20 134 -6 29 -11 82
-11 116 0 57 3 64 26 80 23 15 30 15 51 4 14 -8 28 -20 31 -29 3 -8 8 -17 11
-20 3 -3 19 -30 34 -62 33 -64 60 -93 81 -85 19 7 56 91 56 126 0 41 22 81 49
88 36 9 75 -17 79 -52 2 -17 8 -34 13 -39 5 -6 9 -27 9 -48 0 -40 23 -98 39
-98 20 0 74 70 111 145 52 104 83 124 135 84z m120 -1184 c47 -7 85 -27 85
-46 0 -5 -10 -18 -22 -30 l-23 -21 -465 7 c-481 7 -500 8 -485 48 8 19 83 37
163 38 31 0 77 4 102 9 50 9 567 5 645 -5z m-98 -264 c40 -6 81 -16 93 -23 22
-14 27 -43 8 -55 -7 -4 -187 -8 -401 -8 -373 0 -387 1 -393 19 -10 30 16 42
123 55 54 6 130 15 168 20 86 11 304 7 402 -8z m-257 -234 c51 -18 60 -26 60
-51 0 -30 -38 -50 -86 -43 -162 21 -215 28 -253 35 -51 8 -72 32 -52 56 11 13
38 16 155 16 86 0 155 -5 176 -13z m-581 -828 c36 -6 102 -20 146 -31 44 -11
96 -23 115 -28 19 -5 53 -14 75 -19 173 -47 221 -52 655 -61 444 -10 501 -16
645 -65 173 -59 314 -170 377 -296 45 -90 58 -144 58 -238 0 -115 -29 -203
-89 -272 -17 -19 -31 -37 -31 -41 0 -5 33 -8 73 -8 173 -1 353 -57 487 -153
163 -117 251 -258 279 -447 17 -107 -8 -244 -66 -368 -39 -84 -130 -186 -210
-236 -24 -14 -43 -31 -43 -37 0 -5 11 -45 24 -87 55 -177 78 -440 56 -637 -30
-269 -95 -435 -221 -562 -39 -40 -78 -73 -86 -73 -42 0 -191 165 -301 335 -55
84 -202 368 -202 390 0 4 -6 21 -14 38 -27 61 -75 199 -101 292 -9 33 -20 71
-25 85 -21 61 -101 407 -140 605 -7 33 -18 87 -26 121 -8 33 -14 68 -14 77 0
23 -17 21 -54 -6 -34 -26 -194 -117 -205 -117 -4 0 -29 -10 -57 -23 -61 -29
-261 -92 -334 -106 -128 -24 -207 -31 -345 -31 -186 0 -321 18 -475 65 -136
41 -120 44 -196 -40 -59 -64 -122 -123 -279 -260 -65 -56 -284 -195 -326 -206
-62 -16 -114 -5 -154 34 -33 33 -67 126 -97 267 l-13 65 -135 6 c-129 6 -167
12 -235 38 -130 49 -233 136 -281 236 -37 78 -45 199 -18 272 22 60 68 128
100 149 29 20 31 41 4 69 -34 36 -66 108 -80 177 -20 100 -2 205 57 326 85
179 224 285 453 347 80 22 340 30 495 15 72 -7 156 -15 189 -17 l58 -5 -8 34
c-15 58 -10 153 11 197 11 22 23 41 28 41 4 0 7 5 7 12 0 21 97 106 153 134
94 49 198 63 316 43z m6661 -1436 c-15 -56 -126 -398 -139 -428 -5 -11 -21
-56 -36 -100 -14 -44 -31 -90 -37 -102 -6 -11 -8 -25 -4 -31 3 -5 58 -12 123
-16 162 -10 315 -34 533 -83 122 -28 150 -38 150 -53 0 -13 -142 -13 -233 0
-40 6 -106 15 -147 21 -113 16 -226 38 -315 61 -44 11 -92 23 -106 25 -27 5
-19 23 -131 -277 l-24 -65 -50 2 c-52 3 -215 28 -275 44 -53 13 -67 4 -74 -49
-10 -83 -57 -286 -100 -432 -9 -30 -20 -68 -25 -85 -26 -95 -82 -229 -100
-240 -15 -9 -13 59 5 140 9 39 20 90 25 115 19 98 93 363 110 392 6 10 10 24
10 33 0 8 11 40 25 71 14 32 22 61 18 65 -5 4 -60 16 -123 28 -208 39 -225 42
-270 51 -25 5 -76 16 -115 25 -317 72 -168 72 340 0 61 -8 144 -20 185 -26 41
-5 98 -14 125 -19 126 -22 226 -33 234 -24 5 5 30 65 56 134 68 181 95 250
130 335 20 48 20 47 86 210 29 72 67 163 86 203 18 41 33 78 33 83 0 5 4 9 9
9 5 0 11 10 14 22 4 12 9 19 13 15 4 -3 1 -28 -6 -54z m-6965 -1050 c46 -19
85 -51 85 -69 0 -20 -33 -25 -91 -13 -30 7 -110 14 -179 18 -116 6 -125 7
-125 26 0 13 13 26 38 38 76 37 181 37 272 0z m1445 -261 c53 -26 70 -39 92
-71 33 -47 -4 -62 -77 -31 -50 20 -116 39 -183 51 -77 13 -86 18 -76 43 15 40
167 45 244 8z m-993 -449 c-3 -191 -13 -440 -22 -553 -9 -113 -18 -277 -22
-365 -5 -143 -3 -164 13 -200 23 -49 61 -70 99 -55 24 9 26 8 23 -12 -4 -30
-47 -53 -81 -44 -46 11 -102 70 -120 127 -20 61 -23 295 -7 529 6 80 15 208
20 285 20 285 42 501 62 590 13 61 18 69 30 57 7 -7 8 -132 5 -359z m-477 62
c0 -94 -19 -155 -49 -155 -38 0 -53 93 -30 188 7 26 19 55 27 65 14 16 16 16
34 1 15 -14 18 -32 18 -99z m1403 -115 c21 -81 -13 -225 -51 -218 -29 5 -45
91 -31 163 16 79 26 97 52 93 14 -2 24 -14 30 -38z m1313 -832 c-4 -29 -11
-57 -17 -62 -17 -18 -9 -34 27 -57 67 -41 89 -104 60 -173 -29 -69 -100 -112
-175 -104 -50 5 -50 25 1 48 97 43 132 140 51 146 -15 1 -33 3 -39 3 -7 1 -22
9 -34 19 l-23 18 48 90 c52 99 71 124 93 124 12 0 13 -10 8 -52z m-1642 -475
c-3 -30 -18 -77 -31 -105 -33 -68 -124 -158 -198 -194 -56 -27 -68 -29 -175
-29 -107 1 -119 3 -175 30 -86 43 -179 145 -132 145 6 0 44 -15 82 -34 96 -47
131 -56 211 -56 162 0 286 91 374 272 19 38 26 45 37 36 11 -8 12 -25 7 -65z
m-8972 -87 c56 -25 111 -71 143 -121 27 -42 28 -184 1 -235 -50 -96 -117 -135
-231 -135 -92 1 -121 12 -183 77 -63 64 -77 100 -77 193 0 84 10 112 67 178
59 69 181 88 280 43z m12203 -812 c27 -6 65 -35 65 -49 0 -3 -19 -5 -42 -5
-23 0 -39 -2 -37 -4 8 -7 98 -13 94 -6 -9 15 79 18 91 4 6 -8 24 -14 39 -14
21 0 26 -4 21 -17 -9 -22 10 -32 59 -34 l40 -1 -30 -14 c-30 -13 -29 -14 20
-10 33 3 57 -1 70 -10 11 -8 14 -14 6 -14 -10 0 -11 -3 -2 -14 9 -11 9 -15 -1
-19 -7 -3 14 -6 47 -7 52 0 58 -2 43 -14 -10 -7 -18 -22 -17 -32 0 -17 2 -16
11 4 14 27 38 29 38 3 0 -25 18 -37 33 -22 8 8 17 5 33 -14 12 -14 28 -24 35
-23 9 2 13 -4 11 -15 -2 -14 2 -17 25 -12 l28 5 -28 -11 -28 -11 27 -14 c15
-8 39 -15 53 -16 14 -1 32 -8 39 -15 7 -7 23 -13 35 -13 l22 -1 -23 -19 c-20
-17 -21 -20 -6 -28 11 -6 30 -6 48 -1 40 12 55 11 36 -1 -12 -8 -11 -10 8 -10
15 0 22 -6 22 -19 0 -11 4 -22 9 -25 13 -8 19 -53 10 -68 -6 -8 -9 -2 -9 20 0
17 -5 32 -10 32 -6 0 -8 -11 -4 -26 4 -17 2 -29 -7 -35 -11 -7 -11 -9 -1 -9
20 0 6 -17 -28 -34 -21 -10 -30 -11 -30 -3 0 7 -5 6 -11 -3 -8 -12 -12 -12
-16 -2 -4 10 -15 4 -39 -19 -36 -35 -42 -54 -21 -63 6 -3 2 -3 -10 0 -18 4
-25 0 -33 -20 -6 -16 -17 -26 -30 -26 -11 0 -23 -6 -26 -13 -5 -15 -84 -21
-84 -6 0 5 -8 9 -17 9 -13 0 -11 -5 10 -18 31 -19 34 -27 10 -36 -11 -4 -22
-1 -29 8 -23 32 -55 8 -56 -42 -1 -18 -6 -29 -12 -26 -13 5 -26 -4 -46 -31
-14 -19 -14 -19 3 -6 19 15 33 9 22 -8 -3 -6 -15 -11 -26 -11 -10 0 -19 -3
-19 -8 0 -4 -9 -13 -20 -20 -17 -10 -20 -10 -20 3 0 8 7 15 17 15 9 0 14 3 10
6 -3 4 -18 3 -32 0 -18 -5 -25 -12 -21 -21 3 -8 1 -15 -5 -15 -6 0 -9 -6 -6
-12 3 -10 -17 -14 -79 -16 -52 -1 -84 2 -84 8 0 5 -18 10 -40 10 -22 0 -40 -5
-40 -11 0 -6 9 -8 21 -4 11 4 34 1 50 -5 25 -11 27 -15 17 -28 -11 -12 -6 -12
21 2 31 17 35 17 50 1 15 -15 14 -17 -9 -35 -27 -21 -40 -25 -40 -11 0 5 12
12 26 15 19 5 24 10 16 18 -11 11 -61 -18 -62 -37 0 -6 -7 -21 -16 -33 l-16
-23 -20 23 c-18 21 -20 21 -29 5 -6 -9 -17 -17 -25 -17 -9 0 -12 5 -8 12 10
15 5 91 -5 98 -5 3 -10 30 -13 60 -3 30 -3 47 -1 38 2 -10 11 -18 19 -18 8 0
25 -7 39 -16 18 -12 28 -13 44 -4 14 7 21 7 21 0 0 -6 31 -9 83 -8 45 1 63 3
40 5 -40 4 -43 6 -43 34 0 27 2 29 40 29 36 0 40 3 40 25 0 20 5 24 23 22 12
-1 21 3 20 9 -1 6 8 9 21 7 26 -5 96 34 96 55 0 6 9 12 21 12 12 0 23 8 26 20
3 11 12 20 19 20 8 0 14 7 14 16 0 8 16 22 35 30 44 18 46 18 39 -3 -4 -11 -2
-14 3 -8 16 21 73 56 81 51 5 -3 18 2 28 10 18 15 18 15 -3 11 -13 -3 -28 2
-38 13 -16 17 -16 18 3 13 29 -7 92 37 92 65 0 22 -64 92 -85 92 -5 0 -21 9
-35 20 -27 21 -60 26 -60 9 0 -5 -5 -7 -12 -3 -9 6 -9 9 0 12 23 7 12 22 -17
22 -16 0 -31 4 -33 8 -1 4 -16 17 -33 28 -26 18 -58 27 -140 38 -29 4 -35 56
-6 56 12 0 21 7 21 15 0 8 -9 15 -20 15 -11 0 -20 -4 -20 -10 0 -5 -9 -10 -20
-10 -11 0 -20 -7 -20 -15 0 -11 -11 -15 -40 -15 -22 0 -40 5 -40 10 0 6 -7 10
-15 10 -9 0 -18 7 -21 15 -4 8 -15 15 -25 15 -12 0 -19 7 -19 20 0 17 -7 20
-40 20 -24 0 -40 -5 -40 -12 0 -7 -7 -5 -17 5 -12 10 -28 13 -47 10 -24 -5
-28 -3 -23 11 7 18 9 17 -93 21 -119 4 -110 0 -110 45 l0 40 65 0 65 0 0 40
c0 37 -2 40 -27 40 -18 0 -23 3 -15 8 12 8 70 2 137 -14z m-205 -168 c0 -3 -4
-8 -10 -11 -5 -3 -10 -1 -10 4 0 6 5 11 10 11 6 0 10 -2 10 -4z m-45 -16 c3
-5 1 -10 -4 -10 -6 0 -11 5 -11 10 0 6 2 10 4 10 3 0 8 -4 11 -10z m155 0 c0
-5 -7 -7 -15 -4 -8 4 -15 8 -15 10 0 2 7 4 15 4 8 0 15 -4 15 -10z m553 -17
c-7 -2 -19 -2 -25 0 -7 3 -2 5 12 5 14 0 19 -2 13 -5z m-656 -65 c-3 -7 -5 -2
-5 12 0 14 2 19 5 13 2 -7 2 -19 0 -25z m-4032 -48 c3 -5 15 -10 26 -10 10 0
19 -4 19 -10 0 -5 7 -10 15 -10 8 0 48 -16 90 -35 352 -165 755 -189 1125 -68
65 22 97 35 223 92 97 44 124 40 70 -11 -95 -88 -304 -181 -510 -228 -138 -31
-399 -29 -551 4 -165 36 -366 121 -432 183 -19 18 -38 33 -41 33 -4 0 -24 16
-45 35 -35 31 -37 35 -17 35 12 0 25 -4 28 -10z m3972 -32 c-3 -8 -6 -5 -6 6
-1 11 2 17 5 13 3 -3 4 -12 1 -19z m658 -6 c-3 -3 -11 0 -18 7 -9 10 -8 11 6
5 10 -3 15 -9 12 -12z m315 -12 c0 -5 -9 -10 -19 -10 -11 0 -23 5 -26 10 -4 6
5 10 19 10 14 0 26 -4 26 -10z m-830 -70 c0 -5 -2 -10 -4 -10 -3 0 -8 5 -11
10 -3 6 -1 10 4 10 6 0 11 -4 11 -10z m935 -10 c-3 -5 -13 -10 -21 -10 -8 0
-14 5 -14 10 0 6 9 10 21 10 11 0 17 -4 14 -10z m-168 -46 c-3 -3 -12 -4 -19
-1 -8 3 -5 6 6 6 11 1 17 -2 13 -5z m43 -25 c0 -5 -4 -9 -10 -9 -5 0 -10 7
-10 16 0 8 5 12 10 9 6 -3 10 -10 10 -16z m235 -19 c3 -5 1 -10 -4 -10 -6 0
-11 5 -11 10 0 6 2 10 4 10 3 0 8 -4 11 -10z m-1115 -44 c0 -26 -6 -18 -14 19
-5 22 -4 26 4 15 5 -8 10 -24 10 -34z m97 -28 c-3 -8 -6 -5 -6 6 -1 11 2 17 5
13 3 -3 4 -12 1 -19z m14 -45 c-8 -15 -10 -15 -11 -2 0 17 10 32 18 25 2 -3
-1 -13 -7 -23z m839 -43 c-30 -30 -39 -16 -9 16 13 14 25 21 27 15 2 -5 -6
-19 -18 -31z m-260 -4 c0 -3 -4 -8 -10 -11 -5 -3 -10 -1 -10 4 0 6 5 11 10 11
6 0 10 -2 10 -4z m-613 -48 c-3 -8 -6 -5 -6 6 -1 11 2 17 5 13 3 -3 4 -12 1
-19z m533 -2 c0 -8 -7 -16 -15 -20 -13 -4 -14 -2 -5 14 13 23 20 26 20 6z
m-560 -6 c0 -5 -4 -10 -10 -10 -5 0 -10 5 -10 10 0 6 5 10 10 10 6 0 10 -4 10
-10z m590 -20 c0 -11 -4 -20 -9 -20 -7 0 -8 17 -2 38 4 10 11 -2 11 -18z
m-453 -27 c-3 -10 -5 -4 -5 12 0 17 2 24 5 18 2 -7 2 -21 0 -30z m-125 -18
c-2 -14 -6 -25 -8 -25 -2 0 -4 11 -4 25 0 14 4 25 9 25 4 0 6 -11 3 -25z m25
-7 c-3 -8 -6 -5 -6 6 -1 11 2 17 5 13 3 -3 4 -12 1 -19z m448 12 c-3 -5 -13
-10 -21 -10 -8 0 -12 5 -9 10 3 6 13 10 21 10 8 0 12 -4 9 -10z m255 0 c0 -5
-7 -10 -16 -10 -8 0 -12 5 -9 10 3 6 10 10 16 10 5 0 9 -4 9 -10z m-220 -16
c0 -8 -5 -12 -10 -9 -6 4 -8 11 -5 16 9 14 15 11 15 -7z m-363 -26 c-3 -7 -5
-2 -5 12 0 14 2 19 5 13 2 -7 2 -19 0 -25z m310 16 c-3 -3 -12 -4 -19 -1 -8 3
-5 6 6 6 11 1 17 -2 13 -5z m-428 -49 c0 -5 -4 -3 -9 5 -5 8 -9 22 -9 30 0 16
17 -16 18 -35z m88 23 c-3 -8 -6 -5 -6 6 -1 11 2 17 5 13 3 -3 4 -12 1 -19z
m523 11 c0 -16 -29 -41 -40 -34 -14 9 6 45 25 45 8 0 15 -5 15 -11z m-473 -51
c-3 -7 -5 -2 -5 12 0 14 2 19 5 13 2 -7 2 -19 0 -25z m-17 12 c0 -5 -4 -10
-10 -10 -5 0 -10 5 -10 10 0 6 5 10 10 10 6 0 10 -4 10 -10z m-2079 -40 c24 0
38 -4 34 -10 -4 -6 16 -10 54 -10 33 0 63 -4 66 -10 3 -5 15 -10 26 -10 10 0
19 -4 19 -10 0 -5 -12 -10 -27 -10 -16 0 -35 -5 -43 -11 -11 -7 -6 -9 20 -4
55 10 70 16 70 26 0 15 30 10 36 -6 4 -10 21 -15 48 -16 39 -1 39 -2 11 -9
-24 -6 -18 -8 32 -9 56 -1 61 -3 56 -21 -3 -11 -14 -20 -24 -20 -11 0 -19 -7
-19 -15 0 -8 9 -15 20 -15 11 0 20 -4 20 -10 0 -5 12 -10 26 -10 14 0 23 4 19
9 -3 6 12 12 32 14 21 2 12 3 -19 1 -46 -3 -58 -1 -58 11 0 8 9 15 20 15 11 0
20 5 20 10 0 6 10 10 22 10 21 0 21 0 2 -15 -18 -15 -18 -15 6 -14 14 1 41 1
60 0 27 -1 31 -4 20 -11 -11 -7 -5 -10 25 -11 35 -1 37 -2 15 -9 -17 -5 -19
-8 -7 -9 13 -1 17 -10 17 -41 l0 -40 53 0 c34 0 47 3 38 9 -12 8 -12 12 2 25
20 21 37 20 37 0 0 -12 6 -15 21 -11 12 3 22 0 26 -9 3 -8 18 -14 34 -14 19 0
29 -5 29 -15 0 -9 6 -12 15 -8 10 3 15 0 13 -8 -2 -8 7 -14 24 -14 32 -1 51
-15 20 -15 -11 0 -23 -4 -26 -9 -3 -5 18 -7 47 -6 28 2 46 1 40 -2 -20 -7 -15
-33 6 -33 10 0 24 -7 31 -15 11 -13 8 -15 -19 -15 -21 0 -31 5 -31 15 0 8 -9
15 -20 15 -11 0 -20 -7 -20 -15 0 -8 9 -15 19 -15 11 0 21 -6 23 -12 4 -10 15
-10 55 0 53 14 73 9 111 -25 7 -7 20 -13 29 -13 12 0 14 -6 8 -27 -6 -26 -6
-27 13 -10 23 21 36 22 28 1 -5 -13 -2 -15 15 -11 13 4 28 -1 38 -11 15 -15
15 -15 -1 -9 -10 3 -18 2 -18 -3 0 -6 8 -10 18 -10 15 -1 15 -2 -2 -15 -19
-14 -18 -15 15 -16 l34 -2 -35 -7 -35 -7 35 -2 c20 0 41 4 48 11 9 9 16 5 32
-15 11 -14 30 -29 41 -32 15 -5 18 -12 13 -28 -6 -19 -5 -20 9 -9 10 9 17 10
22 2 3 -5 15 -10 26 -10 13 0 19 -7 19 -22 0 -18 2 -20 10 -8 8 12 10 12 16
-3 3 -9 12 -17 19 -17 7 0 20 -15 29 -32 8 -18 16 -28 16 -21 0 7 7 10 16 6
14 -5 12 -8 -7 -19 l-24 -13 28 -1 c15 0 27 -4 27 -9 0 -5 10 -11 23 -13 12
-2 21 -9 19 -16 -1 -6 5 -12 14 -12 9 0 27 -11 40 -26 26 -27 31 -40 12 -28
-7 4 -8 3 -4 -4 4 -6 13 -9 21 -5 19 7 19 -11 0 -27 -18 -15 -20 -37 -3 -42
19 -7 58 3 52 13 -3 5 -16 6 -30 3 -14 -4 -24 -2 -24 5 0 6 7 11 15 11 8 0 15
5 15 11 0 7 13 -1 28 -17 16 -16 24 -32 19 -35 -5 -4 4 -11 21 -17 19 -6 32
-19 36 -36 3 -14 11 -26 17 -26 6 0 8 -9 4 -20 -4 -11 -2 -20 4 -20 6 0 11 7
11 17 0 9 3 13 8 9 7 -8 8 -13 11 -42 0 -9 6 -14 13 -12 15 5 58 -39 58 -60
-1 -15 -3 -14 -16 3 -16 19 -16 19 -9 -5 10 -35 13 -36 30 -14 13 17 14 17 15
2 0 -10 7 -18 15 -18 14 0 18 -24 17 -100 l-1 -25 8 25 c5 14 6 36 4 50 -5 24
-5 24 10 5 9 -12 13 -31 10 -50 -6 -36 20 -66 39 -47 17 17 39 -12 45 -58 3
-22 9 -40 14 -40 5 0 6 8 3 18 -5 14 -3 14 10 -2 9 -11 16 -28 16 -39 0 -10 4
-16 9 -13 5 3 11 -1 15 -9 3 -10 -1 -15 -12 -15 -12 0 -11 -4 7 -13 13 -6 29
-21 35 -32 6 -11 15 -23 19 -26 4 -3 8 -38 8 -77 0 -69 1 -72 25 -72 16 0 24
6 24 18 1 16 1 16 11 -1 6 -9 14 -15 19 -12 5 3 7 -8 5 -25 -3 -21 3 -38 21
-59 15 -18 20 -32 14 -36 -5 -3 -13 1 -16 9 -11 30 -19 16 -22 -39 l-3 -55 38
0 c21 -1 49 -7 63 -15 l25 -14 -24 -1 c-24 0 -24 -1 -6 -14 11 -8 25 -12 32
-9 7 3 13 0 13 -7 0 -6 7 -19 16 -28 13 -12 15 -29 11 -73 -3 -31 -1 -63 4
-70 6 -10 9 -2 9 24 0 46 19 41 21 -6 2 -31 2 -31 6 -4 5 30 23 27 23 -4 0
-10 5 -19 11 -19 6 0 8 -10 5 -22 -3 -13 -3 -17 0 -10 8 17 24 15 24 -3 0 -8
-4 -15 -9 -15 -5 0 -12 -7 -15 -16 -4 -12 -2 -15 9 -10 14 5 65 -33 65 -48 0
-3 -11 -4 -25 0 -14 3 -25 2 -25 -4 0 -5 11 -13 25 -16 19 -5 25 -13 26 -34 1
-24 2 -23 9 8 l7 35 2 -32 c0 -18 6 -33 11 -33 6 0 10 -9 10 -20 0 -14 5 -18
18 -14 12 4 13 3 4 -3 -7 -5 -10 -17 -6 -26 7 -20 20 -22 27 -4 3 6 6 -4 6
-23 1 -26 4 -31 11 -20 5 8 10 11 11 5 1 -5 2 -14 4 -20 1 -5 3 -25 3 -42 1
-18 6 -33 11 -33 5 0 7 10 5 23 -3 15 0 13 13 -10 9 -18 20 -33 25 -33 4 0 8
-8 8 -19 0 -10 9 -30 21 -45 20 -26 14 -37 -9 -14 -9 9 -12 8 -12 -4 0 -10 12
-19 30 -23 27 -6 30 -11 31 -48 l2 -42 7 35 7 35 2 -32 c0 -17 6 -35 11 -38 6
-3 8 -18 5 -33 l-5 -27 12 25 c11 24 12 25 15 3 2 -12 11 -27 19 -33 8 -7 14
-20 14 -28 0 -12 -3 -13 -12 -4 -15 15 -28 16 -28 2 0 -5 6 -10 14 -10 14 0
29 -28 25 -46 -3 -19 1 -34 10 -34 5 0 7 9 4 20 -3 11 0 20 6 20 6 0 11 -10
11 -22 0 -19 2 -20 10 -8 9 13 11 13 20 0 5 -8 10 -23 10 -32 0 -10 5 -18 10
-18 6 0 10 -6 8 -14 -2 -8 1 -15 6 -14 9 0 26 -22 26 -35 0 -4 -9 -2 -20 5
-10 7 -22 9 -26 5 -10 -9 28 -38 43 -32 6 2 17 -9 23 -26 7 -16 16 -26 21 -23
11 6 11 6 0 -34 -5 -17 -6 -32 -1 -32 4 0 10 10 13 22 11 42 16 12 8 -43 -8
-50 -4 -81 6 -51 3 6 15 12 29 12 18 0 22 -4 17 -17 -4 -11 -3 -14 5 -9 8 4
12 0 12 -11 1 -21 33 -63 49 -63 6 0 11 -15 11 -32 0 -25 3 -29 10 -18 8 12
10 9 10 -12 0 -16 -5 -28 -11 -28 -6 0 -4 -7 5 -15 8 -8 19 -15 25 -15 15 0
41 -41 41 -65 0 -11 11 -44 25 -74 18 -38 29 -51 40 -47 9 3 15 0 15 -9 0 -8
4 -15 10 -15 5 0 12 -11 16 -25 3 -14 10 -25 16 -25 5 0 7 -4 3 -10 -3 -5 -13
-6 -23 -3 -15 6 -15 5 -3 -10 7 -9 24 -17 37 -17 15 0 24 -6 24 -15 0 -8 -9
-15 -21 -15 -11 0 -17 -4 -14 -10 3 -5 18 -10 33 -10 20 0 23 -3 14 -12 -7 -7
-12 -34 -12 -61 l0 -49 45 4 c36 2 44 0 40 -11 -7 -17 23 -64 35 -56 6 4 10
-1 10 -9 0 -9 -6 -16 -12 -17 -7 0 -3 -4 10 -10 13 -5 20 -13 17 -19 -3 -5 -1
-10 4 -10 6 0 11 -7 11 -16 0 -8 4 -12 10 -9 5 3 13 -7 16 -22 4 -15 16 -34
26 -42 11 -7 17 -19 14 -27 -3 -7 5 -21 17 -30 13 -9 15 -14 6 -11 -14 5 -15
0 -8 -31 4 -20 6 -48 3 -62 -5 -23 -4 -24 9 -7 11 14 13 26 6 50 -12 43 -3 46
12 3 9 -25 16 -32 21 -23 5 7 6 -1 2 -17 -6 -26 -5 -29 15 -23 20 5 22 3 17
-19 -5 -17 -2 -24 8 -24 19 0 17 -48 -3 -53 -11 -3 -9 -5 6 -6 13 -1 23 6 25
17 3 14 5 12 10 -6 6 -21 4 -23 -25 -20 -23 2 -31 7 -28 18 8 34 5 44 -14 48
-19 3 -19 2 -3 -11 17 -13 16 -15 -5 -25 -12 -6 -16 -11 -9 -11 6 -1 12 -6 12
-12 0 -6 -7 -8 -15 -5 -8 3 -22 9 -30 12 -9 4 -15 0 -15 -9 0 -8 6 -18 13 -20
6 -3 -26 -6 -73 -6 -59 -1 -80 -4 -70 -11 11 -7 0 -10 -37 -10 -32 0 -57 -6
-66 -15 -10 -9 -40 -15 -91 -16 -55 -2 -76 -7 -76 -16 0 -9 -16 -13 -50 -13
-27 0 -50 -4 -50 -9 0 -5 -26 -9 -57 -9 -46 1 -52 2 -28 8 l30 8 -27 1 c-15 0
-29 -3 -32 -8 -3 -5 -25 -7 -48 -6 -24 1 -29 0 -13 -2 58 -9 48 -22 -16 -22
-44 1 -66 -4 -74 -14 -6 -8 -24 -14 -40 -14 -17 0 -65 -5 -108 -11 -43 -7 -97
-13 -120 -13 l-42 -2 35 -7 c31 -7 29 -8 -23 -9 -34 0 -68 -8 -83 -17 -23 -15
-26 -15 -44 1 -10 9 -25 15 -32 12 -8 -4 -7 -6 5 -6 36 -2 15 -21 -23 -21 -22
0 -40 -4 -40 -10 0 -6 -32 -10 -76 -10 -47 0 -73 -4 -69 -10 4 -6 -13 -10 -42
-10 -28 0 -58 -6 -69 -15 -23 -18 -74 -21 -57 -4 9 9 8 15 -2 25 -21 21 -38
18 -25 -5 8 -16 5 -21 -22 -30 -17 -6 -50 -11 -74 -11 -25 0 -44 -5 -46 -12
-3 -9 -32 -13 -92 -14 -47 -1 -89 -4 -93 -8 -3 -3 1 -6 10 -6 9 0 17 -4 17 -9
0 -4 -39 -7 -87 -6 -57 2 -80 0 -65 -6 42 -16 22 -22 -53 -16 -68 5 -75 4 -75
-13 0 -16 -10 -18 -105 -16 -58 0 -105 0 -105 -2 0 -1 10 -7 23 -12 21 -8 21
-9 -5 -9 -15 -1 -33 6 -42 14 -21 21 -29 19 -16 -6 13 -24 11 -27 -16 -32 -30
-4 -44 -16 -37 -32 3 -9 -1 -15 -10 -15 -18 0 -27 -44 -17 -81 8 -28 -3 -51
-13 -27 -3 7 -6 -1 -6 -18 -1 -17 -8 -37 -17 -45 -9 -7 -14 -22 -11 -35 3 -16
0 -21 -10 -17 -10 4 -11 -2 -7 -26 7 -33 -11 -45 -19 -13 -3 9 -5 -2 -6 -25 0
-24 -5 -43 -11 -43 -5 0 -10 -11 -10 -25 0 -17 -6 -25 -17 -26 -17 -1 -17 -2
0 -6 26 -7 21 -23 -8 -23 -14 0 -25 -4 -25 -10 0 -5 5 -10 10 -10 6 0 10 -7
10 -15 0 -8 -6 -12 -14 -9 -17 7 -33 -16 -18 -25 6 -4 10 -32 10 -63 -1 -31
-5 -55 -9 -52 -13 8 -17 -40 -14 -164 2 -68 0 -121 -3 -118 -3 3 -11 1 -18 -5
-10 -9 -15 -7 -20 5 -10 27 -33 18 -39 -16 -3 -18 -4 -183 -3 -366 l3 -334
-32 5 c-18 3 -35 1 -38 -4 -4 -5 6 -9 21 -9 15 0 25 -2 23 -4 -2 -3 -54 -7
-114 -10 -69 -4 -103 -2 -90 4 11 5 32 9 48 9 15 1 27 5 27 9 0 5 -38 9 -85
10 l-85 1 0 -38 c0 -31 -5 -40 -25 -49 -32 -15 -109 -16 -100 -2 3 6 -1 10 -9
10 -8 0 -16 -10 -18 -22 -3 -20 -10 -23 -60 -26 -41 -2 -58 -7 -58 -17 0 -9
-15 -13 -50 -13 -27 -1 -58 -6 -69 -11 -11 -6 -40 -11 -65 -11 -25 0 -46 -4
-46 -10 0 -5 -20 -10 -44 -10 -26 0 -51 -6 -59 -15 -12 -12 -25 -13 -64 -6
-26 5 -50 7 -52 5 -2 -2 1 -4 7 -4 7 0 12 -6 12 -13 0 -9 -15 -14 -47 -16 -27
-1 -49 -6 -51 -11 -2 -6 -25 -10 -51 -10 -26 0 -51 -4 -56 -9 -6 -5 -20 -12
-32 -16 -17 -5 -23 -2 -23 9 0 9 -8 16 -17 16 -15 0 -16 -2 -4 -9 12 -8 9 -11
-12 -16 -15 -4 -27 -11 -27 -16 0 -5 -28 -9 -62 -9 -40 0 -58 -4 -49 -9 9 -6
0 -10 -28 -13 -41 -4 -57 6 -23 15 13 4 12 5 -5 6 -13 1 -24 -6 -28 -18 -3
-11 -18 -21 -35 -23 -34 -5 -41 7 -10 15 11 3 20 10 20 16 0 18 -13 13 -44
-16 -21 -20 -45 -29 -90 -35 -33 -5 -63 -13 -67 -19 -4 -7 -19 -8 -38 -4 -19
4 -31 3 -31 -4 0 -6 -6 -8 -14 -5 -7 3 -16 -2 -19 -10 -5 -12 -22 -15 -74 -14
-107 1 -143 -1 -143 -10 0 -5 28 -7 63 -6 61 3 61 2 12 -5 -27 -3 -59 -12 -69
-18 -11 -6 -36 -8 -57 -6 -30 4 -40 2 -45 -11 -8 -20 -34 -21 -34 -1 0 10 -10
15 -27 15 l-28 -1 25 -14 c24 -14 24 -14 -13 -10 -47 6 -73 -6 -37 -16 22 -6
20 -7 -11 -8 -20 -1 -53 -8 -72 -16 -20 -8 -50 -15 -66 -15 -16 0 -33 -5 -36
-11 -4 -5 -26 -9 -48 -7 -23 2 -43 -1 -44 -6 -3 -18 -28 -26 -38 -12 -14 18
-72 34 -125 34 -40 0 -42 -1 -15 -8 17 -4 47 -8 68 -9 35 -1 55 -21 21 -21 -8
0 -12 -4 -9 -10 3 -5 3 -10 -2 -10 -4 0 -18 -3 -30 -6 -24 -7 -33 11 -10 19 6
2 -1 2 -18 -1 -40 -6 -61 -22 -43 -33 8 -5 -18 -9 -62 -10 -47 -1 -66 -4 -50
-8 22 -6 23 -8 6 -14 -10 -4 -35 -4 -54 -1 -30 6 -34 4 -29 -10 5 -13 -1 -16
-34 -16 -23 0 -47 -7 -56 -15 -8 -9 -31 -15 -52 -15 -37 1 -112 -15 -143 -31
-10 -5 -33 -9 -52 -9 -18 0 -39 -7 -46 -15 -8 -10 -30 -15 -61 -15 -27 0 -49
-4 -49 -10 0 -5 -18 -10 -40 -10 -22 0 -40 -4 -40 -10 0 -5 -20 -10 -44 -10
-24 0 -46 -4 -48 -8 -5 -13 -58 -24 -58 -12 0 5 7 10 17 10 9 0 14 2 11 5 -3
3 -19 2 -37 -1 -25 -5 -32 -11 -28 -25 5 -17 -1 -19 -66 -15 -40 2 -81 0 -92
-5 -14 -5 -3 -8 35 -10 l55 -1 -65 -10 c-36 -5 -66 -13 -68 -18 -5 -14 -56
-12 -71 3 -11 10 -13 8 -8 -10 5 -21 2 -23 -34 -23 -21 0 -39 -4 -39 -9 0 -10
-63 -22 -127 -24 -24 -1 -43 -4 -43 -8 0 -3 -12 -11 -26 -18 -20 -9 -30 -9
-40 0 -11 9 -14 8 -14 -4 0 -20 -26 -29 -69 -21 -27 4 -32 3 -21 -5 13 -9 13
-11 -2 -11 -10 0 -18 -4 -18 -9 0 -6 -21 -11 -47 -13 -34 -2 -47 -7 -45 -16 2
-11 -7 -12 -37 -7 -44 7 -73 -2 -50 -16 8 -4 -16 -8 -56 -7 -43 0 -69 -4 -68
-10 1 -5 -13 -12 -32 -14 -19 -2 -35 -2 -35 2 0 9 -59 9 -65 0 -4 -6 6 -10 22
-11 21 -1 16 -4 -17 -10 -25 -5 -58 -6 -74 -3 -24 5 -28 3 -23 -10 5 -13 -2
-16 -48 -16 -35 0 -55 -4 -55 -11 0 -9 -27 -10 -95 -6 -57 3 -93 2 -90 -4 4
-5 20 -9 37 -9 53 0 25 -9 -35 -12 -31 -1 -57 -5 -57 -9 0 -10 -39 -18 -45 -9
-3 5 1 11 7 14 7 3 -3 3 -22 0 -38 -7 -63 -22 -55 -34 3 -5 -38 -8 -91 -8 -52
0 -99 -3 -102 -7 -4 -4 19 -5 52 -3 53 4 56 4 33 -8 -13 -7 -38 -12 -55 -9
-19 2 -36 -2 -43 -11 -7 -8 -26 -13 -44 -12 -18 1 -43 -5 -56 -13 -13 -8 -42
-16 -64 -18 -22 -1 -43 -7 -47 -14 -6 -9 -8 -9 -8 1 0 7 -15 12 -41 12 -22 0
-38 -4 -35 -8 9 -15 -11 -34 -30 -29 -17 4 -17 6 3 12 18 6 21 11 13 25 -13
24 -13 90 0 90 6 0 10 33 10 80 0 64 3 80 15 80 12 0 15 16 15 80 0 47 4 80
10 80 6 0 10 33 10 80 0 64 3 80 15 80 12 0 15 16 15 80 0 64 3 80 15 80 13 0
15 20 15 120 0 66 4 120 9 120 5 0 12 36 16 80 4 44 11 80 16 80 5 0 9 36 9
80 0 75 1 80 21 80 21 0 21 3 14 76 -5 53 -3 79 4 84 7 4 14 54 18 123 3 64
10 117 15 117 4 0 8 18 8 40 l0 40 40 0 40 0 0 40 c0 36 -3 40 -24 40 -13 0
-26 6 -29 14 -4 9 -28 16 -64 20 -60 7 -90 8 -548 31 -154 7 -292 18 -308 24
-15 6 -33 22 -39 37 -10 22 -9 32 7 62 29 52 44 56 490 102 50 5 140 12 200
15 132 8 196 20 213 42 7 10 12 12 12 5 0 -17 65 -15 79 2 11 12 5 15 -31 19
-24 2 65 4 197 5 132 1 245 6 252 10 6 4 -91 6 -215 5 -125 -1 -219 1 -209 4
12 3 17 15 17 44 0 29 4 39 16 39 12 0 14 9 12 43 -2 34 1 44 17 52 13 7 20
21 21 41 0 16 3 34 5 39 3 6 2 26 -2 45 -5 27 -7 30 -8 10 -1 -20 -3 -22 -12
-10 -7 11 -9 7 -7 -20 1 -19 7 -38 12 -42 16 -11 -11 -58 -34 -58 -11 0 -20 5
-20 10 0 6 -10 10 -23 10 -13 0 -28 5 -35 12 -15 15 -16 120 -2 203 9 57 16
118 40 365 15 153 28 277 43 400 16 124 10 160 -23 160 -11 0 -20 5 -20 10 0
6 -8 10 -17 10 -10 0 -14 -4 -8 -8 23 -17 14 -32 -19 -32 -19 0 -36 -6 -39
-14 -3 -7 -25 -17 -49 -21 -23 -4 -47 -9 -53 -10 -5 -1 -26 -3 -45 -4 -32 -3
-33 -4 -10 -10 19 -5 21 -8 9 -13 -21 -8 -109 3 -109 13 0 5 -10 9 -22 9 -22
-1 -22 -2 -5 -14 15 -12 16 -14 2 -20 -8 -3 -15 -12 -15 -21 0 -12 -14 -15
-60 -17 -33 -1 -68 -2 -77 -2 -24 -1 -53 -27 -46 -40 3 -6 0 -5 -7 1 -11 10
-17 9 -32 -4 -17 -15 -18 -15 -18 5 0 15 8 23 28 28 51 11 47 12 -30 13 l-78
1 0 -38 c0 -21 5 -43 12 -50 9 -9 5 -12 -18 -12 -22 0 -26 3 -14 10 8 5 10 10
4 10 -6 0 -23 -9 -37 -20 -16 -13 -40 -20 -66 -20 -23 0 -41 -4 -41 -9 0 -4
12 -6 28 -3 15 3 23 1 19 -4 -5 -5 -25 -9 -45 -9 -26 0 -36 -4 -34 -14 2 -11
-9 -13 -63 -7 -40 4 -65 3 -65 -3 0 -5 15 -12 33 -14 28 -3 27 -4 -10 -5 -23
-1 -44 2 -47 7 -3 5 -18 8 -33 8 -16 0 -22 -2 -15 -4 10 -4 10 -8 1 -19 -8 -9
-8 -14 -1 -14 6 0 14 5 17 10 8 12 35 13 35 1 0 -12 -53 -21 -65 -11 -18 14
-75 22 -75 11 0 -6 7 -11 15 -11 8 0 15 -7 15 -15 0 -9 -9 -15 -25 -15 -14 0
-25 -4 -25 -10 0 -5 -18 -10 -40 -10 -22 0 -40 5 -40 10 0 6 -8 5 -20 -2 -14
-9 -23 -10 -28 -3 -10 13 -92 18 -92 5 0 -5 18 -10 40 -10 22 0 40 -2 40 -4 0
-2 3 -11 6 -19 4 -11 -6 -16 -40 -21 -25 -4 -46 -11 -46 -15 0 -5 -26 -12 -57
-16 -44 -6 -53 -9 -38 -16 13 -5 15 -8 5 -8 -8 0 -26 6 -40 14 l-25 14 30 2
c17 1 23 3 15 5 -8 2 -42 0 -75 -5 -46 -7 -52 -9 -23 -10 20 0 43 -4 52 -7 21
-8 8 -34 -18 -34 -12 0 -31 -6 -41 -14 -12 -8 -42 -13 -70 -12 l-50 1 -3 43
c-2 28 -8 42 -18 42 -10 0 -14 12 -14 40 0 29 -4 40 -15 40 -8 0 -15 9 -15 20
0 12 -11 31 -25 44 -18 17 -25 34 -25 61 0 31 -3 37 -17 33 -16 -4 -18 1 -14
39 l3 43 -40 0 c-34 0 -41 4 -45 23 -2 12 -4 5 -4 -16 0 -52 -11 -58 -19 -9
-4 23 -10 39 -15 36 -5 -3 -9 6 -9 20 0 18 -4 24 -15 20 -11 -5 -15 2 -16 27
-1 35 -16 94 -18 72 -2 -23 -21 -14 -21 10 0 13 -4 27 -9 32 -5 6 -11 23 -13
38 -2 15 -6 26 -11 25 -15 -6 -42 61 -46 115 -1 5 -5 5 -11 2 -5 -3 -7 0 -4 8
3 8 -2 21 -10 30 -9 9 -16 28 -16 44 0 22 -2 25 -10 13 -8 -12 -10 -9 -10 13
0 16 4 26 10 22 6 -3 10 -4 10 0 0 3 -12 10 -26 16 -15 5 -24 12 -21 16 4 3 2
14 -4 24 -7 15 -6 19 5 19 8 0 16 -6 19 -12 2 -7 8 -10 12 -6 13 12 -26 48
-51 48 -13 0 -26 5 -30 12 -4 7 -3 8 4 4 20 -12 13 11 -18 64 -16 28 -30 58
-30 66 0 8 -6 17 -13 20 -10 3 -13 20 -10 57 1 29 0 46 -3 40 -11 -24 -24 -13
-19 15 3 15 2 21 -1 15 -9 -20 -21 -15 -28 12 -4 14 -11 25 -16 25 -6 0 -10
19 -10 43 0 31 -3 38 -10 27 -8 -12 -10 -11 -10 6 0 12 -7 25 -16 28 -10 4
-13 13 -9 25 3 11 1 22 -5 26 -5 3 -10 17 -10 31 0 14 -6 24 -14 24 -8 0 -16
7 -20 15 -3 8 -1 15 4 15 6 0 10 5 10 10 0 6 -7 10 -15 10 -12 0 -15 13 -15
58 -1 56 -1 57 -15 27 -8 -18 -14 -23 -14 -13 -1 9 -12 38 -26 65 -13 27 -23
58 -23 69 3 38 -13 94 -27 94 -7 0 -15 -6 -18 -12 -2 -7 -7 11 -12 40 -5 40
-11 52 -21 48 -8 -3 -14 1 -14 8 0 7 -12 35 -26 61 -14 27 -23 57 -21 67 3 10
0 18 -8 18 -14 0 -25 30 -25 70 0 20 -2 22 -10 10 -8 -11 -9 -8 -4 12 4 20 2
29 -10 34 -9 3 -16 14 -16 24 0 10 -3 20 -7 22 -10 4 -46 68 -41 73 8 8 36
-23 41 -45 3 -18 5 -15 6 13 1 26 6 37 16 37 11 0 15 11 15 40 0 36 -2 40 -26
40 -25 0 -26 2 -22 45 3 41 1 44 -22 48 -14 2 -1 4 28 4 28 1 55 -3 58 -8 3
-5 12 -9 21 -9 12 0 14 7 8 37 -4 21 -10 40 -15 43 -4 3 21 6 57 7 71 1 81 6
65 26 -25 30 3 25 31 -6 l30 -32 -6 35 c-3 19 -3 29 0 23 2 -7 22 -13 44 -13
35 0 39 3 39 24 0 22 3 24 43 20 23 -2 35 -1 27 2 -8 3 -22 8 -30 11 -19 8 29
20 83 22 30 1 37 5 37 21 0 14 7 20 23 20 18 0 19 2 7 10 -11 7 -6 10 20 10
27 0 32 3 20 11 -12 8 -10 9 8 4 26 -8 52 9 52 34 0 13 11 16 60 14 40 -1 63
3 71 13 6 8 17 14 24 14 16 0 39 45 31 59 -4 6 0 11 8 11 9 0 16 -6 16 -12 0
-9 2 -10 8 -2 4 6 22 15 41 19 29 6 33 5 28 -9 -4 -9 -2 -16 3 -16 6 0 10 5
10 11 0 7 11 9 28 5 15 -3 21 -3 15 0 -7 3 -13 11 -13 18 0 10 14 12 50 8 48
-4 50 -4 50 21 0 20 4 24 20 20 11 -3 20 0 20 6 0 6 9 11 20 11 22 0 27 16 8
23 -7 2 11 2 40 -1 48 -4 52 -3 52 17 0 11 6 21 13 21 8 0 7 4 -3 10 -12 8 -9
10 13 10 16 0 26 -4 22 -10 -3 -5 -1 -10 5 -10 6 0 15 10 20 23 7 17 9 18 9 5
1 -14 10 -18 41 -18 39 0 40 1 40 33 0 18 -5 38 -10 45 -7 9 -7 9 2 2 16 -13
31 -13 23 0 -3 6 -1 10 4 10 6 0 11 -4 11 -10 0 -5 7 -10 15 -10 8 0 15 7 15
15 0 8 4 15 10 15 5 0 7 -7 4 -15 -4 -10 0 -15 11 -15 9 0 13 5 10 10 -3 6 -1
10 5 10 20 0 4 24 -21 32 -26 8 9 5 109 -8 49 -6 52 -5 52 15 0 15 -6 21 -22
21 -14 1 0 9 32 20 30 11 76 20 102 20 38 0 48 3 48 17 0 17 37 63 52 63 13 0
9 -28 -4 -33 -8 -3 -6 -6 5 -6 10 -1 20 5 23 13 3 8 14 16 25 19 11 3 23 15
26 26 4 16 14 21 42 22 30 1 32 2 12 8 -14 4 -26 12 -27 19 -1 7 0 8 3 2 2 -5
25 -10 50 -10 39 0 70 13 113 47 2 2 -2 9 -10 14 -11 8 -8 8 10 3 22 -6 23 -5
11 10 -12 14 -11 16 7 16 11 0 22 -5 24 -11 6 -18 66 -1 78 22 6 10 15 19 21
19 15 0 36 23 42 46 4 16 5 16 6 -3 0 -13 7 -23 16 -23 9 0 12 6 9 15 -4 10 0
15 11 15 11 0 15 -5 11 -15 -4 -11 2 -15 22 -15 25 1 26 2 9 15 -18 13 -18 14
2 24 33 18 51 13 51 -14 0 -22 4 -25 40 -25 40 0 40 0 40 40 0 33 -4 40 -22
44 -13 3 -32 7 -43 9 -14 3 -12 5 8 6 16 0 37 -4 49 -10 23 -12 88 -3 88 13 0
6 -11 8 -27 3 -26 -6 -27 -5 -9 8 13 9 35 12 67 9 45 -4 49 -3 49 17 0 12 -6
21 -16 21 -8 0 -22 7 -30 15 -9 8 -11 15 -5 15 5 0 13 -4 16 -10 9 -14 48 -13
63 2 10 10 17 10 34 -1 19 -12 20 -11 15 16 -4 15 -4 22 -1 16 3 -7 23 -13 45
-13 32 0 39 3 39 20 0 16 9 21 42 27 24 3 37 8 30 11 -26 8 1 22 44 22 37 0
44 3 44 20 0 11 7 20 15 20 13 0 39 12 65 28 2 2 -2 7 -9 11 -9 6 -10 11 -2
15 6 4 11 2 11 -3 0 -6 17 -11 39 -11 35 0 39 3 45 30 5 28 36 44 36 18 0 -6
9 -3 20 7 11 10 20 13 20 7 0 -7 16 -12 40 -12 40 0 40 0 40 40 0 27 4 38 13
35 6 -2 37 0 67 4 30 5 43 9 28 10 -30 1 -39 21 -10 21 9 0 28 3 41 7 16 4 22
3 17 -5 -3 -6 -2 -13 4 -17 11 -7 70 30 83 53 6 8 18 11 32 8 22 -6 42 15 30
33 -2 5 18 6 45 3 46 -4 50 -3 50 17 0 18 6 21 48 22 35 0 42 3 27 9 -11 5
-17 9 -12 9 4 1 9 0 11 -1 2 -2 13 5 23 15 16 14 30 16 81 11 61 -7 62 -7 62
19 0 24 3 25 43 21 36 -3 38 -2 12 5 l-30 9 33 1 c31 1 92 34 100 53 2 4 11 8
19 8 9 0 13 6 9 15 -4 12 -2 13 12 7 9 -5 32 -12 51 -16 28 -5 32 -3 27 10 -5
13 -1 15 17 12 20 -4 23 -1 21 21 -2 14 -1 18 2 9 4 -13 16 -18 45 -18 32 0
39 3 39 20 0 11 6 20 14 20 8 0 17 6 20 13 5 10 7 10 12 0 8 -19 22 -16 29 7
4 12 22 24 46 31 21 7 39 16 39 21 0 4 13 8 29 8 16 0 44 3 62 7 l34 7 -30 7
-30 7 36 1 c20 0 39 4 43 8 4 4 27 6 51 4 39 -2 45 0 45 17 0 23 29 33 74 26
22 -4 27 -3 17 4 -10 7 0 13 40 21 29 6 58 16 66 22 9 8 17 7 29 -6 21 -21 46
-16 59 13 8 17 18 22 47 22 21 0 38 4 38 8 0 5 25 9 56 9 36 0 59 5 64 14 5 7
7 -22 5 -66 -4 -89 1 -76 10 27 5 55 9 65 20 55 7 -7 9 -14 5 -17 -9 -6 -13
-188 -4 -223 3 -15 9 -25 13 -23 4 3 7 -17 7 -44 0 -26 5 -54 11 -62 6 -8 10
-58 9 -128 -1 -63 0 -96 2 -72 2 23 8 42 13 42 6 0 8 16 5 38 l-6 37 10 -33
c6 -18 20 -48 30 -68 11 -19 20 -44 20 -55 0 -11 5 -17 10 -14 6 3 10 -1 10
-10 0 -9 -4 -13 -10 -10 -5 3 -10 2 -10 -3 0 -5 8 -12 19 -15 10 -2 25 -16 32
-30 8 -13 22 -39 32 -56 10 -17 13 -31 7 -31 -5 0 -10 -4 -10 -9 0 -4 11 -6
24 -4 19 4 26 -1 37 -26 8 -18 29 -41 47 -51 17 -11 32 -26 32 -35 0 -9 12
-18 28 -21 15 -3 39 -14 52 -25 22 -16 23 -19 6 -19 -11 0 -28 7 -38 17 -10 9
-18 12 -18 7 1 -22 19 -35 54 -36 40 -1 55 -12 31 -22 -10 -3 -15 -19 -15 -46
l0 -41 89 3 c84 3 108 18 29 18 -21 0 -38 5 -38 10 0 20 51 9 140 -29 50 -21
99 -37 110 -34 15 4 18 1 13 -15 -3 -12 -15 -23 -27 -25 -14 -3 -10 -5 12 -6
18 0 31 3 27 8 -3 5 7 11 22 13 38 4 104 -3 99 -11 -2 -3 47 -8 110 -9 78 -3
114 0 114 7 0 7 33 11 93 12 50 0 86 3 80 6 -7 2 -13 8 -13 12 0 10 39 11 45
0 4 -5 15 -9 27 -9 17 0 18 3 8 14 -9 12 -4 18 29 35 23 10 39 15 35 10 -9
-15 6 -10 33 11 14 11 32 20 39 20 8 0 14 5 14 10 0 6 5 10 11 10 6 0 17 7 26
15 9 10 23 13 36 9 15 -5 19 -3 14 9 -3 9 1 18 9 21 8 3 14 1 14 -5 0 -5 11
-7 26 -3 17 4 29 2 35 -7 4 -7 11 -10 16 -6 4 5 2 12 -5 16 -7 4 -10 15 -6 24
8 21 -9 22 -26 2 -7 -8 -17 -15 -23 -15 -6 0 -1 9 11 20 12 11 26 20 32 20 5
0 10 5 10 10 0 6 7 10 15 10 8 0 15 -4 15 -10 0 -5 8 -10 18 -10 15 1 15 2 -3
15 -18 14 -18 16 -2 33 16 15 19 15 28 2 8 -12 10 -9 6 13 -4 25 -2 27 34 27
33 0 40 4 45 25 3 14 1 31 -5 39 -15 18 -5 25 29 20 39 -7 78 34 50 51 -5 3
-10 0 -10 -8 0 -15 -29 -32 -38 -23 -2 3 5 18 17 34 12 17 21 37 21 45 0 18
16 31 23 20 2 -5 2 -2 0 6 -6 23 17 43 33 30 11 -9 14 -7 14 10 0 11 -3 20 -7
19 -5 -2 -9 0 -10 5 -2 4 0 7 3 6 14 -2 22 26 17 56 -5 29 -5 29 11 10 15 -19
16 -19 14 15 -2 45 11 103 26 112 8 6 7 8 -1 8 -7 0 -13 9 -13 20 0 11 7 20
15 20 11 0 15 17 17 68 3 61 4 65 16 42 11 -22 12 -19 9 33 -1 31 2 57 6 57 5
0 6 14 2 30 -4 18 -3 30 4 30 6 0 8 6 6 13 -3 6 -1 32 4 57 5 25 9 39 10 33 1
-15 31 -18 31 -3 0 6 -4 10 -9 10 -6 0 -9 18 -8 40 1 39 15 52 45 44 8 -2 32
-4 53 -4z m2229 0 c0 -5 -8 -10 -17 -10 -15 0 -16 2 -3 10 19 12 20 12 20 0z
m97 -106 c-3 -3 -12 -4 -19 -1 -8 3 -5 6 6 6 11 1 17 -2 13 -5z m-300 -61 c-3
-10 -5 -2 -5 17 0 19 2 27 5 18 2 -10 2 -26 0 -35z m-4354 20 c-7 -2 -21 -2
-30 0 -10 3 -4 5 12 5 17 0 24 -2 18 -5z m-86 -19 c-3 -3 -12 -4 -19 -1 -8 3
-5 6 6 6 11 1 17 -2 13 -5z m-234 -51 c-7 -2 -19 -2 -25 0 -7 3 -2 5 12 5 14
0 19 -2 13 -5z m-230 -70 c-7 -2 -21 -2 -30 0 -10 3 -4 5 12 5 17 0 24 -2 18
-5z m-66 -29 c-3 -3 -12 -4 -19 -1 -8 3 -5 6 6 6 11 1 17 -2 13 -5z m-347
-138 c0 -2 -9 -6 -20 -9 -11 -3 -18 -1 -14 4 5 9 34 13 34 5z m-227 -93 c-7
-2 -19 -2 -25 0 -7 3 -2 5 12 5 14 0 19 -2 13 -5z m4834 1 c-3 -3 -12 -4 -19
-1 -8 3 -5 6 6 6 11 1 17 -2 13 -5z m-8546 -40 c47 -34 139 -157 139 -186 0
-8 4 -18 9 -23 4 -6 13 -43 20 -83 22 -139 -23 -307 -118 -446 -67 -97 -206
-196 -321 -229 -57 -17 -239 -20 -300 -6 -58 14 -135 43 -340 130 -122 52
-127 53 -225 53 -97 1 -102 0 -151 -32 -81 -52 -138 -125 -172 -222 -15 -45
-42 -195 -42 -238 0 -76 -56 -123 -116 -97 -34 15 -60 48 -99 130 -26 55 -29
70 -29 170 -1 98 2 118 28 185 66 168 189 303 344 377 98 46 213 66 332 57
107 -8 155 -23 330 -106 168 -78 198 -88 277 -88 78 0 124 20 183 79 79 79 88
140 50 343 l-23 127 26 53 c47 95 115 113 198 52z m3189 -154 c0 -5 -4 -10
-10 -10 -5 0 -10 5 -10 10 0 6 5 10 10 10 6 0 10 -4 10 -10z m-42 -27 c-10 -2
-26 -2 -35 0 -10 3 -2 5 17 5 19 0 27 -2 18 -5z m3692 -167 c0 -15 -18 -31
-26 -23 -7 7 7 37 17 37 5 0 9 -6 9 -14z m-4243 -72 c-3 -3 -12 -4 -19 -1 -8
3 -5 6 6 6 11 1 17 -2 13 -5z m-47 -34 c0 -5 -5 -10 -11 -10 -5 0 -7 5 -4 10
3 6 8 10 11 10 2 0 4 -4 4 -10z m-130 -50 c0 -5 -10 -10 -22 -9 -22 0 -22 1
-3 9 11 5 21 9 23 9 1 1 2 -3 2 -9z m3105 -70 c3 -5 1 -10 -4 -10 -6 0 -11 5
-11 10 0 6 2 10 4 10 3 0 8 -4 11 -10z m-3275 -4 c0 -2 -7 -9 -15 -16 -13 -11
-14 -10 -9 4 5 14 24 23 24 12z m-273 -122 c-3 -3 -12 -4 -19 -1 -8 3 -5 6 6
6 11 1 17 -2 13 -5z m7359 -62 c-10 -10 -29 15 -21 28 6 9 10 8 17 -4 6 -10 7
-20 4 -24z m-7426 -2 c0 -5 -4 -10 -10 -10 -5 0 -10 5 -10 10 0 6 5 10 10 10
6 0 10 -4 10 -10z m-380 -150 c0 -5 -7 -10 -16 -10 -8 0 -12 5 -9 10 3 6 10
10 16 10 5 0 9 -4 9 -10z m-73 -26 c-3 -3 -12 -4 -19 -1 -8 3 -5 6 6 6 11 1
17 -2 13 -5z m40 -10 c-3 -3 -12 -4 -19 -1 -8 3 -5 6 6 6 11 1 17 -2 13 -5z
m-77 -8 c0 -2 -7 -6 -15 -10 -8 -3 -15 -1 -15 4 0 6 7 10 15 10 8 0 15 -2 15
-4z m-43 -22 c-3 -3 -12 -4 -19 -1 -8 3 -5 6 6 6 11 1 17 -2 13 -5z m-50 -30
c-3 -3 -12 -4 -19 -1 -8 3 -5 6 6 6 11 1 17 -2 13 -5z m-52 -24 c-3 -5 -12
-10 -18 -10 -7 0 -6 4 3 10 19 12 23 12 15 0z m-462 -217 c-7 -2 -19 -2 -25 0
-7 3 -2 5 12 5 14 0 19 -2 13 -5z m8873 -100 c-10 -10 -19 5 -10 18 6 11 8 11
12 0 2 -7 1 -15 -2 -18z m-9269 -59 c-3 -3 -12 -4 -19 -1 -8 3 -5 6 6 6 11 1
17 -2 13 -5z m9368 -94 c3 -5 1 -10 -4 -10 -6 0 -11 5 -11 10 0 6 2 10 4 10 3
0 8 -4 11 -10z m-9768 -76 c-3 -3 -12 -4 -19 -1 -8 3 -5 6 6 6 11 1 17 -2 13
-5z m-144 -71 c-7 -2 -19 -2 -25 0 -7 3 -2 5 12 5 14 0 19 -2 13 -5z m-123
-63 c0 -5 -5 -10 -11 -10 -5 0 -7 5 -4 10 3 6 8 10 11 10 2 0 4 -4 4 -10z
m-53 -6 c-3 -3 -12 -4 -19 -1 -8 3 -5 6 6 6 11 1 17 -2 13 -5z m-27 -18 c0 -3
-4 -8 -10 -11 -5 -3 -10 -1 -10 4 0 6 5 11 10 11 6 0 10 -2 10 -4z m10590
-582 c0 -8 -5 -12 -10 -9 -6 4 -8 11 -5 16 9 14 15 11 15 -7z m193 -336 c4
-12 4 -24 1 -27 -6 -7 -24 20 -24 37 0 21 17 13 23 -10z m141 -233 c3 -8 1
-15 -4 -15 -6 0 -10 7 -10 15 0 8 2 15 4 15 2 0 6 -7 10 -15z m79 -136 c19
-34 23 -64 7 -54 -5 3 -10 15 -10 26 0 10 -4 19 -9 19 -5 0 -11 9 -14 20 -8
30 6 24 26 -11z m154 -271 c-3 -8 -6 -5 -6 6 -1 11 2 17 5 13 3 -3 4 -12 1
-19z m-20 -45 c-3 -10 -5 -4 -5 12 0 17 2 24 5 18 2 -7 2 -21 0 -30z m20 -5
c-3 -8 -6 -5 -6 6 -1 11 2 17 5 13 3 -3 4 -12 1 -19z m-11016 -378 c10 -6 19
-17 19 -25 0 -9 4 -23 9 -33 18 -34 94 -240 131 -352 15 -47 33 -98 40 -115
23 -56 28 -70 55 -145 15 -41 30 -84 35 -95 4 -11 15 -40 25 -65 10 -25 21
-54 25 -65 9 -21 74 -198 92 -250 6 -16 17 -43 23 -60 12 -28 34 -85 122 -325
19 -52 41 -108 48 -125 6 -16 17 -43 23 -60 14 -40 100 -270 117 -315 7 -19
30 -80 50 -135 20 -55 40 -109 45 -120 23 -58 42 -110 75 -200 20 -55 40 -109
45 -120 5 -11 25 -65 45 -120 33 -90 52 -142 75 -200 5 -11 25 -65 45 -120 20
-55 45 -121 55 -146 11 -25 26 -68 35 -95 9 -27 27 -76 40 -109 13 -33 40
-105 60 -160 20 -55 40 -109 45 -120 23 -58 42 -110 75 -200 20 -55 40 -109
45 -120 4 -11 16 -40 25 -65 38 -96 46 -110 65 -110 11 0 75 -4 142 -10 68 -5
247 -16 398 -25 151 -9 325 -20 386 -25 60 -6 143 -10 183 -10 40 0 125 -4
189 -10 116 -10 336 -24 632 -41 342 -19 502 -28 650 -38 85 -6 234 -15 330
-21 96 -6 245 -15 330 -20 197 -12 605 -37 825 -50 94 -6 229 -15 300 -20 72
-6 157 -10 190 -10 86 0 89 -4 94 -110 2 -73 6 -93 21 -102 16 -10 16 -12 0
-28 -15 -15 -100 -17 -916 -29 -2997 -42 -6477 -73 -7803 -69 l-905 3 -29 75
c-16 41 -35 89 -42 105 -6 17 -18 46 -25 65 -6 19 -16 44 -20 55 -8 20 -56
143 -70 180 -4 11 -15 40 -25 65 -10 25 -21 54 -25 65 -8 22 -57 149 -70 180
-10 25 -40 104 -50 130 -9 25 -59 153 -70 180 -4 11 -20 52 -35 90 -15 39 -31
79 -35 90 -4 11 -14 36 -20 55 -7 19 -18 49 -25 65 -7 17 -25 62 -40 100 -15
39 -31 79 -35 90 -5 11 -18 47 -30 80 -12 33 -27 74 -35 90 -7 17 -18 46 -25
65 -7 19 -18 49 -25 65 -29 71 -75 189 -265 685 -111 289 -208 539 -214 555
-7 17 -23 57 -36 90 -12 33 -33 89 -47 125 -14 36 -29 74 -33 85 -4 11 -15 40
-25 65 -10 25 -21 54 -25 65 -15 39 -62 160 -70 180 -4 11 -20 52 -35 90 -15
39 -31 79 -35 90 -5 11 -20 50 -34 88 -14 37 -38 97 -52 135 -14 37 -30 76
-34 87 -4 11 -14 36 -20 55 -7 19 -19 49 -25 65 -33 79 -55 138 -55 145 0 4
46 10 103 14 181 11 626 36 822 46 105 5 224 11 265 14 41 3 210 13 375 21
165 8 356 20 425 25 69 6 163 10 210 10 47 0 141 4 210 10 69 5 258 16 420 25
303 16 502 28 765 46 83 6 233 14 335 20 639 31 1134 60 1139 65 6 6 10 5 32
-6z m726 -72 c-3 -8 -6 -5 -6 6 -1 11 2 17 5 13 3 -3 4 -12 1 -19z m1773 -88
c0 -5 -15 -10 -32 -9 -31 1 -32 1 -8 9 35 11 40 11 40 0z m-163 -46 c-3 -3
-12 -4 -19 -1 -8 3 -5 6 6 6 11 1 17 -2 13 -5z m-52 -14 c-3 -5 -10 -10 -16
-10 -5 0 -9 5 -9 10 0 6 7 10 16 10 8 0 12 -4 9 -10z m-1405 -125 c0 -8 -4
-15 -10 -15 -5 0 -7 7 -4 15 4 8 8 15 10 15 2 0 4 -7 4 -15z m17 -27 c-3 -8
-6 -5 -6 6 -1 11 2 17 5 13 3 -3 4 -12 1 -19z m25 -83 c3 -13 1 -22 -3 -19 -9
5 -13 44 -5 44 2 0 6 -11 8 -25z m25 3 c-3 -8 -6 -5 -6 6 -1 11 2 17 5 13 3
-3 4 -12 1 -19z m568 -18 c-3 -5 -10 -10 -16 -10 -5 0 -9 5 -9 10 0 6 7 10 16
10 8 0 12 -4 9 -10z m7203 -259 c-2 -23 -5 -28 -15 -19 -9 7 -10 15 -2 29 14
27 20 24 17 -10z m-5958 -485 c0 -3 -4 -8 -10 -11 -5 -3 -10 -1 -10 4 0 6 5
11 10 11 6 0 10 -2 10 -4z m40 -6 c0 -5 -2 -10 -4 -10 -3 0 -8 5 -11 10 -3 6
-1 10 4 10 6 0 11 -4 11 -10z m-73 -192 c-3 -8 -6 -5 -6 6 -1 11 2 17 5 13 3
-3 4 -12 1 -19z m5750 -280 c-2 -13 -4 -3 -4 22 0 25 2 35 4 23 2 -13 2 -33 0
-45z m-40 -80 c-2 -13 -4 -3 -4 22 0 25 2 35 4 23 2 -13 2 -33 0 -45z m-5710
-4 c-3 -3 -12 -4 -19 -1 -8 3 -5 6 6 6 11 1 17 -2 13 -5z m5730 -46 c-3 -7 -5
-2 -5 12 0 14 2 19 5 13 2 -7 2 -19 0 -25z m-4 -129 c-4 -4 -6 13 -3 39 l5 47
3 -39 c2 -21 0 -42 -5 -47z m-5796 -11 c-2 -13 -4 -5 -4 17 -1 22 1 32 4 23 2
-10 2 -28 0 -40z m5803 -44 c0 -8 -5 -12 -10 -9 -6 4 -8 11 -5 16 9 14 15 11
15 -7z m-13 -86 c-2 -13 -4 -3 -4 22 0 25 2 35 4 23 2 -13 2 -33 0 -45z
m-5800 -10 c-3 -7 -5 -2 -5 12 0 14 2 19 5 13 2 -7 2 -19 0 -25z m-20 -70 c-3
-7 -5 -2 -5 12 0 14 2 19 5 13 2 -7 2 -19 0 -25z m-20 -55 c-3 -10 -5 -4 -5
12 0 17 2 24 5 18 2 -7 2 -21 0 -30z m20 -35 c-3 -8 -6 -5 -6 6 -1 11 2 17 5
13 3 -3 4 -12 1 -19z m30 0 c-3 -8 -6 -5 -6 6 -1 11 2 17 5 13 3 -3 4 -12 1
-19z m5613 -58 c0 -5 -17 -9 -37 -9 l-38 2 35 7 c19 4 36 8 38 9 1 0 2 -3 2
-9z m-5703 -152 c-3 -8 -6 -5 -6 6 -1 11 2 17 5 13 3 -3 4 -12 1 -19z m-15
-157 c-6 -3 -12 -24 -15 -46 l-4 -40 -1 43 c-2 40 18 84 27 60 2 -6 -1 -13 -7
-17z m21 -51 c-3 -12 -8 -19 -11 -16 -5 6 5 36 12 36 2 0 2 -9 -1 -20z m-79
-314 c-3 -21 -8 -35 -11 -32 -2 2 -1 20 3 40 3 21 8 35 11 32 2 -2 1 -20 -3
-40z m6 -66 c0 -5 -5 -10 -11 -10 -5 0 -7 5 -4 10 3 6 8 10 11 10 2 0 4 -4 4
-10z m-53 -242 c-3 -8 -6 -5 -6 6 -1 11 2 17 5 13 3 -3 4 -12 1 -19z m0 -80
c-3 -7 -5 -2 -5 12 0 14 2 19 5 13 2 -7 2 -19 0 -25z m-50 -200 c-3 -8 -6 -5
-6 6 -1 11 2 17 5 13 3 -3 4 -12 1 -19z m27 -55 c4 -11 1 -11 -14 -3 -16 9
-20 8 -20 -6 0 -10 -3 -15 -6 -11 -11 10 3 34 20 34 8 0 17 -6 20 -14z m-17
-60 c-3 -10 -5 -2 -5 17 0 19 2 27 5 18 2 -10 2 -26 0 -35z m5807 -829 c10
-26 7 -76 -4 -69 -5 3 -10 -1 -10 -10 0 -9 5 -13 10 -10 6 4 10 -5 9 -22 -1
-19 -3 -22 -6 -9 -3 11 -8 14 -12 9 -8 -14 -244 -20 -343 -9 -67 7 -78 6 -78
-7 0 -8 6 -18 13 -20 6 -3 -89 -5 -213 -5 -124 0 -219 2 -212 5 7 2 12 22 12
44 0 44 -6 41 105 44 39 1 83 5 99 10 21 6 27 5 22 -4 -4 -6 -3 -11 3 -11 5 0
11 6 14 13 3 9 34 12 118 10 63 -1 108 1 102 4 -37 14 -2 23 90 22 130 -1 127
-2 127 16 0 23 145 22 154 -1z m-920 -100 c10 -27 7 -34 -16 -36 -13 0 0 -4
27 -8 28 -4 -185 -7 -473 -8 -333 -1 -521 2 -517 8 3 6 73 9 168 8 103 -1 172
3 190 10 16 7 69 11 120 10 l92 -2 -75 -6 -75 -6 85 -4 c47 -3 103 -2 125 1
l40 6 -45 2 c-43 3 -44 3 -15 12 33 9 105 1 105 -12 0 -5 19 -8 43 -8 29 2 34
3 15 6 -16 2 -28 9 -28 14 0 5 -7 9 -15 9 -8 0 -15 5 -15 10 0 6 50 10 129 10
108 0 130 -3 135 -16z"/>
<path d="M17688 14003 c7 -3 16 -2 19 1 4 3 -2 6 -13 5 -11 0 -14 -3 -6 -6z"/>
<path d="M17920 13889 c0 -5 5 -7 10 -4 6 3 10 8 10 11 0 2 -4 4 -10 4 -5 0
-10 -5 -10 -11z"/>
<path d="M18128 13803 c7 -3 16 -2 19 1 4 3 -2 6 -13 5 -11 0 -14 -3 -6 -6z"/>
<path d="M18242 13738 c5 -15 28 -23 28 -10 0 5 -7 13 -16 16 -10 4 -14 1 -12
-6z"/>
<path d="M18401 13614 c0 -11 3 -14 6 -6 3 7 2 16 -1 19 -3 4 -6 -2 -5 -13z"/>
<path d="M18561 13534 c0 -11 3 -14 6 -6 3 7 2 16 -1 19 -3 4 -6 -2 -5 -13z"/>
<path d="M18331 13291 c-10 -6 -10 -10 -1 -16 7 -4 19 0 28 9 14 13 14 16 2
16 -8 0 -21 -4 -29 -9z"/>
<path d="M18091 13151 c-7 -5 -12 -14 -9 -21 2 -7 10 -4 22 9 19 21 12 28 -13
12z"/>
<path d="M15567 13065 c-3 -16 2 -34 14 -48 l18 -22 1 27 c0 15 -5 30 -11 33
-6 4 -8 13 -5 21 3 8 2 14 -3 14 -5 0 -11 -11 -14 -25z"/>
<path d="M15618 13083 c7 -3 16 -2 19 1 4 3 -2 6 -13 5 -11 0 -14 -3 -6 -6z"/>
<path d="M15825 13010 c-13 -6 -2 -7 30 -3 28 3 52 7 54 9 9 8 -65 2 -84 -6z"/>
<path d="M13025 12850 c-4 -6 8 -10 29 -10 20 0 36 5 36 10 0 6 -13 10 -29 10
-17 0 -33 -4 -36 -10z"/>
<path d="M16378 12843 c7 -3 16 -2 19 1 4 3 -2 6 -13 5 -11 0 -14 -3 -6 -6z"/>
<path d="M15511 12804 c0 -11 3 -14 6 -6 3 7 2 16 -1 19 -3 4 -6 -2 -5 -13z"/>
<path d="M13365 12759 c-4 -20 -5 -47 -2 -60 3 -15 5 -7 7 21 l3 45 7 -45 7
-45 1 40 c0 22 -3 49 -8 60 -6 17 -9 15 -15 -16z"/>
<path d="M16480 12780 c0 -5 5 -10 10 -10 6 0 10 5 10 10 0 6 -4 10 -10 10 -5
0 -10 -4 -10 -10z"/>
<path d="M12778 12763 c7 -3 16 -2 19 1 4 3 -2 6 -13 5 -11 0 -14 -3 -6 -6z"/>
<path d="M15481 12694 c0 -11 3 -14 6 -6 3 7 2 16 -1 19 -3 4 -6 -2 -5 -13z"/>
<path d="M13400 12642 c0 -23 4 -42 9 -42 6 0 7 17 4 38 -8 51 -13 53 -13 4z"/>
<path d="M13372 12630 c0 -19 2 -27 5 -17 2 9 2 25 0 35 -3 9 -5 1 -5 -18z"/>
<path d="M16750 12630 c0 -5 10 -10 23 -10 18 0 19 2 7 10 -19 13 -30 13 -30
0z"/>
<path d="M16960 12520 c0 -5 5 -10 11 -10 5 0 7 5 4 10 -3 6 -8 10 -11 10 -2
0 -4 -4 -4 -10z"/>
<path d="M11980 12455 c-10 -12 -10 -15 4 -15 9 0 16 7 16 15 0 8 -2 15 -4 15
-2 0 -9 -7 -16 -15z"/>
<path d="M13472 12415 c0 -16 2 -22 5 -12 2 9 2 23 0 30 -3 6 -5 -1 -5 -18z"/>
<path d="M15422 12390 c0 -19 2 -27 5 -17 2 9 2 25 0 35 -3 9 -5 1 -5 -18z"/>
<path d="M17120 12380 c0 -5 5 -10 11 -10 5 0 7 5 4 10 -3 6 -8 10 -11 10 -2
0 -4 -4 -4 -10z"/>
<path d="M13490 12370 c0 -5 5 -10 11 -10 5 0 7 5 4 10 -3 6 -8 10 -11 10 -2
0 -4 -4 -4 -10z"/>
<path d="M16545 12270 c3 -5 8 -10 11 -10 2 0 4 5 4 10 0 6 -5 10 -11 10 -5 0
-7 -4 -4 -10z"/>
<path d="M16630 12269 c11 -8 5 -9 -25 -4 -29 4 -36 3 -25 -4 19 -13 67 -14
74 -2 3 5 -1 12 -10 15 -24 9 -31 7 -14 -5z"/>
<path d="M16678 12273 c7 -3 16 -2 19 1 4 3 -2 6 -13 5 -11 0 -14 -3 -6 -6z"/>
<path d="M16728 12273 c7 -3 16 -2 19 1 4 3 -2 6 -13 5 -11 0 -14 -3 -6 -6z"/>
<path d="M16917 12261 c-2 -10 -1 -25 4 -32 6 -10 9 -4 9 19 0 36 -5 42 -13
13z"/>
<path d="M16940 12266 c0 -9 5 -16 10 -16 6 0 10 4 10 9 0 6 -4 13 -10 16 -5
3 -10 -1 -10 -9z"/>
<path d="M16703 12253 c9 -2 23 -2 30 0 6 3 -1 5 -18 5 -16 0 -22 -2 -12 -5z"/>
<path d="M16560 12240 c0 -5 5 -10 10 -10 6 0 10 5 10 10 0 6 -4 10 -10 10 -5
0 -10 -4 -10 -10z"/>
<path d="M13536 12224 c-9 -22 -8 -24 9 -24 8 0 15 9 15 20 0 24 -15 27 -24 4z"/>
<path d="M16517 12233 c-9 -9 -9 -33 1 -33 4 0 13 9 20 20 10 16 10 20 -1 20
-8 0 -17 -3 -20 -7z"/>
<path d="M16940 12221 c0 -16 -5 -19 -26 -15 l-26 5 26 -24 c14 -13 26 -29 26
-36 0 -6 5 -11 10 -11 6 0 10 7 10 15 0 8 -5 15 -10 15 -7 0 -8 13 -4 35 3 19
3 35 0 35 -3 0 -6 -9 -6 -19z"/>
<path d="M17310 12233 c0 -5 5 -15 10 -23 8 -12 10 -11 10 8 0 12 -4 22 -10
22 -5 0 -10 -3 -10 -7z"/>
<path d="M13585 12210 c-3 -5 -1 -10 4 -10 6 0 11 5 11 10 0 6 -2 10 -4 10 -3
0 -8 -4 -11 -10z"/>
<path d="M16480 12210 c0 -5 5 -10 11 -10 5 0 7 5 4 10 -3 6 -8 10 -11 10 -2
0 -4 -4 -4 -10z"/>
<path d="M16395 12190 c-27 -7 -28 -8 -5 -8 14 0 34 3 45 8 25 11 2 11 -40 0z"/>
<path d="M16328 12183 c7 -3 16 -2 19 1 4 3 -2 6 -13 5 -11 0 -14 -3 -6 -6z"/>
<path d="M16818 12173 c7 -3 16 -2 19 1 4 3 -2 6 -13 5 -11 0 -14 -3 -6 -6z"/>
<path d="M13630 12147 c0 -15 4 -27 8 -27 10 0 9 36 -1 46 -4 4 -7 -5 -7 -19z"/>
<path d="M16358 12163 c6 -2 18 -2 25 0 6 3 1 5 -13 5 -14 0 -19 -2 -12 -5z"/>
<path d="M16821 12159 c-51 -10 -58 -14 -36 -22 8 -4 15 -2 15 3 0 6 19 9 43
9 39 -1 40 -2 12 -9 -20 -5 -23 -8 -10 -9 34 -1 65 11 65 25 0 16 -22 16 -89
3z"/>
<path d="M16714 12139 c0 -11 4 -15 11 -10 5 5 17 10 25 13 10 3 6 6 -10 10
-20 3 -26 0 -26 -13z"/>
<path d="M13601 12134 c0 -11 3 -14 6 -6 3 7 2 16 -1 19 -3 4 -6 -2 -5 -13z"/>
<path d="M16328 12133 c7 -3 16 -2 19 1 4 3 -2 6 -13 5 -11 0 -14 -3 -6 -6z"/>
<path d="M16660 12129 c0 -5 5 -7 10 -4 6 3 10 8 10 11 0 2 -4 4 -10 4 -5 0
-10 -5 -10 -11z"/>
<path d="M16200 12110 c0 -5 7 -10 15 -10 8 0 15 5 15 10 0 6 -7 10 -15 10 -8
0 -15 -4 -15 -10z"/>
<path d="M16245 12111 c-6 -11 13 -26 22 -17 4 3 0 6 -8 7 -8 0 -6 4 6 9 16 7
17 9 3 9 -9 1 -19 -3 -23 -8z"/>
<path d="M16590 12103 l-35 -14 34 6 c18 3 37 5 42 5 5 0 9 5 9 10 0 12 -5 11
-50 -7z"/>
<path d="M17440 12085 c0 -8 5 -15 11 -15 7 0 18 -8 25 -17 12 -17 13 -17 14
3 0 13 -10 25 -25 32 -21 10 -25 9 -25 -3z"/>
<path d="M16505 12080 c-3 -5 -3 -10 2 -11 4 -1 -3 -5 -17 -9 -23 -7 -23 -8 9
-9 27 -1 31 2 22 12 -6 8 -8 17 -4 20 3 4 4 7 0 7 -3 0 -9 -4 -12 -10z"/>
<path d="M13680 12061 c0 -12 5 -21 10 -21 6 0 10 6 10 14 0 8 -4 18 -10 21
-5 3 -10 -3 -10 -14z"/>
<path d="M16200 12070 c-8 -5 -11 -12 -8 -15 4 -4 17 0 30 9 24 17 5 23 -22 6z"/>
<path d="M16544 12068 c-7 -11 56 -9 81 2 14 6 7 8 -28 7 -27 -1 -51 -5 -53
-9z"/>
<path d="M15185 12050 c-3 -5 -1 -10 4 -10 6 0 11 5 11 10 0 6 -2 10 -4 10 -3
0 -8 -4 -11 -10z"/>
<path d="M16150 12040 c-13 -8 -12 -10 3 -10 9 0 17 5 17 10 0 12 -1 12 -20 0z"/>
<path d="M16603 12043 c9 -2 23 -2 30 0 6 3 -1 5 -18 5 -16 0 -22 -2 -12 -5z"/>
<path d="M16085 12020 c3 -5 10 -10 16 -10 5 0 9 5 9 10 0 6 -7 10 -16 10 -8
0 -12 -4 -9 -10z"/>
<path d="M16091 11974 c0 -11 3 -14 6 -6 3 7 2 16 -1 19 -3 4 -6 -2 -5 -13z"/>
<path d="M16375 11980 c-19 -8 -19 -9 3 -9 12 -1 22 4 22 9 0 6 -1 10 -2 9 -2
0 -12 -4 -23 -9z"/>
<path d="M16320 11970 c0 -5 5 -10 10 -10 6 0 10 5 10 10 0 6 -4 10 -10 10 -5
0 -10 -4 -10 -10z"/>
<path d="M13798 11963 c6 -2 18 -2 25 0 6 3 1 5 -13 5 -14 0 -19 -2 -12 -5z"/>
<path d="M15068 11963 c7 -3 16 -2 19 1 4 3 -2 6 -13 5 -11 0 -14 -3 -6 -6z"/>
<path d="M16050 11940 c0 -11 5 -20 10 -20 6 0 10 9 10 20 0 11 -4 20 -10 20
-5 0 -10 -9 -10 -20z"/>
<path d="M16000 11928 c0 -4 5 -8 10 -8 6 0 10 -7 10 -15 0 -8 4 -15 9 -15 5
0 9 11 9 24 0 18 -6 24 -19 23 -11 -1 -19 -5 -19 -9z"/>
<path d="M16270 11936 c0 -2 9 -6 20 -9 11 -3 20 -1 20 4 0 5 -9 9 -20 9 -11
0 -20 -2 -20 -4z"/>
<path d="M16250 11910 c0 -5 5 -10 10 -10 6 0 10 5 10 10 0 6 -4 10 -10 10 -5
0 -10 -4 -10 -10z"/>
<path d="M16305 11900 c-3 -5 -1 -10 4 -10 6 0 11 5 11 10 0 6 -2 10 -4 10 -3
0 -8 -4 -11 -10z"/>
<path d="M14881 11896 c10 -9 79 -14 79 -5 0 5 -19 9 -42 9 -23 0 -39 -2 -37
-4z"/>
<path d="M15995 11882 c-5 -11 -21 -39 -35 -63 l-24 -44 -7 40 -6 40 -1 -35
c-2 -53 10 -65 36 -35 12 14 22 30 22 36 0 7 7 17 16 23 9 7 14 22 12 35 -3
21 -3 22 -13 3z"/>
<path d="M15930 11870 c0 -5 6 -10 14 -10 8 0 18 5 21 10 3 6 -3 10 -14 10
-12 0 -21 -4 -21 -10z"/>
<path d="M16221 11858 c-1 -16 4 -28 9 -28 12 0 12 8 0 35 -8 18 -9 17 -9 -7z"/>
<path d="M14080 11839 c0 -5 11 -9 25 -9 14 0 25 2 25 4 0 2 -11 6 -25 8 -14
3 -25 1 -25 -3z"/>
<path d="M16154 11803 c-4 -16 -16 -38 -27 -50 -25 -28 -19 -37 9 -14 11 9 23
33 27 54 7 43 0 50 -9 10z"/>
<path d="M16190 11815 c0 -8 5 -15 10 -15 6 0 10 7 10 15 0 8 -4 15 -10 15 -5
0 -10 -7 -10 -15z"/>
<path d="M14258 11803 c6 -2 18 -2 25 0 6 3 1 5 -13 5 -14 0 -19 -2 -12 -5z"/>
<path d="M14578 11803 c12 -2 32 -2 45 0 12 2 2 4 -23 4 -25 0 -35 -2 -22 -4z"/>
<path d="M14703 11803 c9 -2 23 -2 30 0 6 3 -1 5 -18 5 -16 0 -22 -2 -12 -5z"/>
<path d="M15922 11730 c0 -14 2 -19 5 -12 2 6 2 18 0 25 -3 6 -5 1 -5 -13z"/>
<path d="M15840 11695 c0 -8 7 -15 15 -15 8 0 15 4 15 9 0 5 -7 11 -15 15 -9
3 -15 0 -15 -9z"/>
<path d="M15884 11672 c-16 -14 -22 -33 -26 -92 -4 -43 -3 -62 2 -45 4 17 8
46 9 65 2 37 20 70 40 70 6 0 11 5 11 10 0 15 -12 12 -36 -8z"/>
<path d="M17766 11672 c-2 -4 -1 -14 5 -22 7 -12 9 -10 9 8 0 23 -5 28 -14 14z"/>
<path d="M16070 11659 c0 -6 -7 -8 -17 -4 -15 5 -16 4 -5 -6 6 -7 12 -30 12
-51 0 -21 3 -38 8 -38 4 0 7 25 7 55 0 30 -1 55 -2 55 -2 0 -3 -5 -3 -11z"/>
<path d="M10138 11643 c7 -3 16 -2 19 1 4 3 -2 6 -13 5 -11 0 -14 -3 -6 -6z"/>
<path d="M12743 11633 c9 -2 25 -2 35 0 9 3 1 5 -18 5 -19 0 -27 -2 -17 -5z"/>
<path d="M12800 11624 c-25 -8 -61 -12 -80 -10 -19 3 -27 2 -17 0 35 -11 17
-27 -23 -21 -41 5 -49 0 -28 -21 9 -9 7 -12 -11 -12 -12 0 -31 -5 -42 -10 -13
-7 -19 -7 -19 0 0 5 -9 10 -21 10 -11 0 -18 -4 -15 -9 3 -5 -1 -14 -8 -20 -11
-10 -16 -9 -24 4 -7 13 -13 15 -28 7 -10 -6 -35 -15 -54 -20 -32 -9 -31 -10
14 -4 36 4 47 2 42 -6 -4 -7 -17 -12 -29 -12 -12 0 -48 -13 -79 -29 -32 -16
-60 -25 -64 -20 -3 5 5 13 18 18 23 10 22 10 -5 10 -16 1 -26 -4 -25 -11 2 -9
-8 -12 -29 -12 -18 1 -33 -2 -33 -7 0 -5 12 -9 26 -9 14 0 23 -4 19 -10 -3 -5
-15 -10 -26 -10 -10 0 -19 -4 -19 -10 0 -5 -19 -10 -42 -10 -31 0 -39 -3 -28
-10 28 -17 -16 -23 -49 -6 -16 9 -50 16 -76 16 l-45 0 0 -40 c0 -31 4 -40 18
-40 14 0 15 -2 2 -10 -10 -6 -16 -6 -18 0 -6 17 -19 11 -25 -10 -3 -12 -14
-20 -25 -20 -12 0 -24 -4 -27 -10 -3 -5 -15 -10 -25 -10 -10 0 -25 -7 -34 -15
-8 -8 -20 -15 -28 -15 -19 0 -118 -52 -118 -62 0 -13 -30 -9 -31 5 0 6 -5 3
-10 -8 -11 -23 -62 -55 -87 -55 -30 0 -68 -78 -69 -140 -1 -30 1 -47 4 -37 4
14 8 16 19 6 8 -6 14 -19 14 -29 0 -20 33 -37 38 -21 2 6 21 11 42 11 21 0 40
5 42 11 2 6 24 11 50 12 25 1 44 5 41 9 -4 8 4 10 52 10 16 0 35 7 43 14 17
17 49 18 54 2 6 -17 39 -1 45 22 3 13 14 20 29 20 12 0 26 5 29 10 3 6 15 10
26 10 11 0 17 -5 14 -10 -4 -7 3 -9 19 -5 14 3 37 7 51 10 14 3 25 1 25 -5 0
-5 19 -9 43 -8 l42 1 -37 4 c-47 5 -71 37 -35 47 12 3 32 6 45 6 12 0 22 6 22
14 0 8 14 16 33 19 60 10 92 20 105 34 7 7 22 13 32 13 10 0 30 7 46 15 16 8
40 12 54 9 17 -4 21 -3 11 4 -9 7 -10 11 -2 17 7 4 18 1 26 -5 12 -10 15 -9
15 4 0 10 9 16 25 16 14 0 34 9 45 20 12 12 38 23 62 25 23 2 45 10 49 17 5 7
24 11 51 9 24 -1 54 2 68 8 21 8 18 9 -17 4 -57 -7 -57 12 -1 21 33 6 39 9 28
17 -12 9 -11 10 4 5 12 -4 31 3 52 19 18 14 39 25 46 25 7 1 23 17 36 36 26
42 31 124 7 144 -23 19 -19 50 6 50 12 0 19 5 17 13 -7 19 -38 20 -58 2 -17
-16 -38 -6 -26 13 8 14 -107 11 -154 -4z m-687 -248 c10 -8 14 -17 9 -20 -15
-9 -42 4 -42 20 0 17 10 17 33 0z m0 -343 c-7 -2 -19 -2 -25 0 -7 3 -2 5 12 5
14 0 19 -2 13 -5z"/>
<path d="M15887 11627 c-11 -29 -9 -43 4 -30 6 6 9 19 7 29 -3 18 -4 18 -11 1z"/>
<path d="M15841 11614 c0 -11 3 -14 6 -6 3 7 2 16 -1 19 -3 4 -6 -2 -5 -13z"/>
<path d="M16020 11601 c0 -5 7 -11 15 -15 9 -3 15 0 15 9 0 8 -7 15 -15 15 -8
0 -15 -4 -15 -9z"/>
<path d="M16010 11570 c0 -5 5 -10 11 -10 5 0 7 5 4 10 -3 6 -8 10 -11 10 -2
0 -4 -4 -4 -10z"/>
<path d="M15991 11534 c0 -11 3 -14 6 -6 3 7 2 16 -1 19 -3 4 -6 -2 -5 -13z"/>
<path d="M17855 11540 c3 -5 8 -10 11 -10 2 0 4 5 4 10 0 6 -5 10 -11 10 -5 0
-7 -4 -4 -10z"/>
<path d="M9824 11501 c-5 -5 -20 -11 -34 -14 -21 -4 -20 -4 7 -6 17 0 35 4 38
10 9 14 1 21 -11 10z"/>
<path d="M17840 11500 c0 -5 5 -10 10 -10 6 0 10 5 10 10 0 6 -4 10 -10 10 -5
0 -10 -4 -10 -10z"/>
<path d="M17878 11483 c6 -2 18 -2 25 0 6 3 1 5 -13 5 -14 0 -19 -2 -12 -5z"/>
<path d="M15843 11445 c0 -22 2 -30 4 -17 2 12 2 30 0 40 -3 9 -5 -1 -4 -23z"/>
<path d="M15981 11470 c0 -8 4 -22 9 -30 12 -18 12 -2 0 25 -6 13 -9 15 -9 5z"/>
<path d="M9660 11420 c0 -5 5 -10 10 -10 6 0 10 5 10 10 0 6 -4 10 -10 10 -5
0 -10 -4 -10 -10z"/>
<path d="M15972 11400 c0 -19 2 -27 5 -17 2 9 2 25 0 35 -3 9 -5 1 -5 -18z"/>
<path d="M13026 11404 c-3 -9 -2 -23 4 -32 7 -14 9 -10 10 16 0 35 -5 41 -14
16z"/>
<path d="M15762 11375 c0 -16 2 -22 5 -12 2 9 2 23 0 30 -3 6 -5 -1 -5 -18z"/>
<path d="M15777 11368 c-3 -18 -7 -42 -10 -53 -2 -11 -2 -14 0 -7 9 24 23 11
23 -20 0 -18 3 -44 6 -58 4 -20 3 -22 -5 -10 -8 12 -11 7 -10 -20 0 -19 3 -29
6 -22 2 6 8 10 13 7 9 -5 24 94 15 103 -3 3 -6 -8 -6 -24 -1 -19 -4 -12 -9 21
-5 28 -6 65 -3 83 3 18 1 32 -5 32 -5 0 -12 -15 -15 -32z"/>
<path d="M15810 11358 c0 -49 5 -47 14 5 4 23 3 37 -4 37 -5 0 -10 -19 -10
-42z"/>
<path d="M15952 11360 c0 -14 2 -19 5 -12 2 6 2 18 0 25 -3 6 -5 1 -5 -13z"/>
<path d="M15977 11315 c7 -51 23 -70 23 -27 0 18 -4 32 -9 32 -5 0 -12 8 -15
18 -2 9 -2 -1 1 -23z"/>
<path d="M17970 11335 c0 -8 5 -15 10 -15 6 0 10 7 10 15 0 8 -4 15 -10 15 -5
0 -10 -7 -10 -15z"/>
<path d="M12957 11328 c2 -5 18 -8 35 -8 17 0 28 3 24 8 -4 4 -20 7 -36 7 -15
0 -26 -3 -23 -7z"/>
<path d="M17925 11330 c-3 -5 1 -10 10 -10 9 0 13 5 10 10 -3 6 -8 10 -10 10
-2 0 -7 -4 -10 -10z"/>
<path d="M11848 11313 c6 -2 18 -2 25 0 6 3 1 5 -13 5 -14 0 -19 -2 -12 -5z"/>
<path d="M15946 11283 c7 -40 11 -49 19 -42 8 8 -7 79 -17 79 -5 0 -6 -17 -2
-37z"/>
<path d="M11873 11293 c-18 -2 -33 -9 -33 -15 0 -6 10 -8 23 -4 12 3 30 6 40
6 9 0 17 5 17 10 0 6 -3 9 -7 8 -5 0 -23 -3 -40 -5z"/>
<path d="M15771 11254 c0 -11 3 -14 6 -6 3 7 2 16 -1 19 -3 4 -6 -2 -5 -13z"/>
<path d="M11768 11233 c7 -3 16 -2 19 1 4 3 -2 6 -13 5 -11 0 -14 -3 -6 -6z"/>
<path d="M11710 11210 c0 -13 20 -13 40 0 12 8 9 10 -12 10 -16 0 -28 -4 -28
-10z"/>
<path d="M11546 11150 c7 -7 19 -7 35 -1 23 9 22 10 -10 10 -24 1 -32 -2 -25
-9z"/>
<path d="M11610 11150 c0 -5 4 -10 9 -10 6 0 13 5 16 10 3 6 -1 10 -9 10 -9 0
-16 -4 -16 -10z"/>
<path d="M15763 11120 c0 -25 2 -35 4 -22 2 12 2 32 0 45 -2 12 -4 2 -4 -23z"/>
<path d="M11520 11103 c0 -13 5 -23 10 -23 13 0 13 11 0 30 -8 12 -10 11 -10
-7z"/>
<path d="M12400 11105 c0 -9 -14 -15 -42 -18 l-43 -4 41 -1 c46 -2 89 20 60
31 -10 4 -16 1 -16 -8z"/>
<path d="M12465 11090 c-3 -5 -1 -10 4 -10 6 0 11 5 11 10 0 6 -2 10 -4 10 -3
0 -8 -4 -11 -10z"/>
<path d="M15783 11040 c0 -25 2 -35 4 -22 2 12 2 32 0 45 -2 12 -4 2 -4 -23z"/>
<path d="M15762 11040 c0 -19 2 -27 5 -17 2 9 2 25 0 35 -3 9 -5 1 -5 -18z"/>
<path d="M12222 11041 c-11 -7 -11 -9 2 -14 10 -4 16 -1 16 8 0 17 -1 17 -18
6z"/>
<path d="M15773 10983 c-18 -7 -16 -20 2 -20 8 0 15 6 15 14 0 7 -1 13 -2 12
-2 0 -9 -3 -15 -6z"/>
<path d="M15764 10832 c3 -58 8 -107 10 -110 9 -8 26 47 25 76 -1 24 -3 23 -9
-8 l-7 -35 -2 43 c-1 30 3 42 13 42 8 0 16 -10 18 -22 2 -13 3 6 2 42 -1 36
-2 67 -3 71 -1 3 -12 5 -26 5 l-26 0 5 -104z m13 26 c-2 -13 -4 -3 -4 22 0 25
2 35 4 23 2 -13 2 -33 0 -45z m20 15 c-3 -10 -5 -2 -5 17 0 19 2 27 5 18 2
-10 2 -26 0 -35z"/>
<path d="M11520 10880 c0 -23 15 -27 23 -6 3 8 -1 17 -9 20 -9 4 -14 -1 -14
-14z"/>
<path d="M11645 10870 c27 -12 35 -12 35 0 0 6 -12 10 -27 9 -25 0 -26 -1 -8
-9z"/>
<path d="M15949 10790 c-5 -35 -3 -130 2 -130 10 0 16 92 8 120 -4 14 -8 18
-10 10z"/>
<path d="M15974 10786 c-5 -13 -3 -21 4 -24 7 -2 13 -16 13 -30 1 -15 3 -20 6
-10 2 9 0 31 -5 50 -8 29 -11 30 -18 14z"/>
<path d="M15803 10723 c-12 -40 -8 -57 7 -33 9 13 14 70 7 70 -1 0 -7 -17 -14
-37z"/>
<path d="M18326 10695 c-3 -8 -1 -15 4 -15 6 0 10 7 10 15 0 8 -2 15 -4 15 -2
0 -6 -7 -10 -15z"/>
<path d="M9563 10673 c9 -2 17 -11 17 -19 0 -18 -9 -18 -32 3 -26 23 -34 9 -9
-16 13 -13 16 -23 10 -27 -6 -4 -15 0 -20 7 -5 9 -7 3 -5 -18 3 -23 1 -30 -9
-27 -7 3 -16 -4 -20 -15 -3 -12 -10 -21 -15 -21 -5 0 -7 7 -4 15 8 20 -6 19
-22 -2 -18 -25 -17 -33 4 -27 16 5 16 5 0 -9 -10 -8 -18 -25 -17 -38 l1 -24 9
25 c6 17 7 8 3 -30 -10 -115 -11 -124 -5 -105 4 15 7 9 12 -20 4 -25 5 -10 3
40 -2 44 0 71 3 61 4 -15 7 -16 14 -5 6 11 9 8 9 -8 0 -13 -4 -23 -10 -23 -5
0 -10 -8 -10 -17 0 -14 2 -15 9 -5 7 11 10 10 15 -3 9 -24 7 -32 -4 -15 -8 12
-10 11 -9 -5 1 -11 5 -31 9 -45 l8 -25 1 25 c2 21 4 19 16 -15 8 -22 11 -50 8
-64 -4 -15 -2 -22 5 -17 6 4 8 -2 4 -16 -3 -14 -2 -19 6 -14 8 5 12 -4 12 -30
0 -23 7 -42 18 -51 12 -10 14 -16 5 -19 -19 -8 -16 -31 8 -55 19 -19 20 -25 9
-42 -10 -17 -10 -19 3 -14 10 4 17 -7 24 -39 6 -24 7 -44 2 -44 -4 0 -10 12
-12 28 l-4 27 -2 -27 c-1 -19 7 -32 24 -44 19 -12 25 -25 25 -50 0 -22 6 -37
15 -40 20 -8 19 -24 -1 -24 -8 0 -12 -5 -9 -10 4 -6 11 -8 16 -5 5 4 9 -5 9
-19 0 -14 5 -26 10 -26 6 0 10 -16 10 -35 0 -19 5 -35 10 -35 6 0 10 -13 10
-30 0 -35 -17 -41 -22 -7 -3 20 -4 20 -9 -5 -4 -15 -2 -25 2 -22 5 3 10 -14
11 -38 l1 -43 4 38 c3 24 9 37 19 37 8 0 14 -7 14 -15 0 -8 -4 -15 -10 -15 -5
0 -10 -9 -10 -20 0 -11 5 -20 10 -20 6 0 10 8 10 18 0 11 5 7 16 -13 8 -16 13
-44 11 -62 -4 -30 -2 -33 20 -33 16 0 27 -7 30 -18 3 -15 14 -19 47 -18 28 0
50 -6 60 -17 10 -9 23 -17 31 -17 21 0 45 11 45 21 0 5 -8 4 -19 -2 -11 -8
-26 -9 -37 -4 -17 8 -15 9 9 13 23 3 26 6 16 18 -9 11 -8 14 5 14 9 0 16 5 16
10 0 6 8 10 18 10 10 0 24 9 32 20 17 23 35 27 26 5 -3 -8 -1 -15 4 -15 6 0
10 6 10 13 0 7 14 28 31 45 27 27 39 32 83 34 35 1 41 2 19 5 -30 4 -31 5 -15
24 9 10 22 19 29 19 7 0 13 4 13 10 0 5 7 7 15 4 9 -4 15 -1 15 8 0 7 9 19 19
25 17 11 21 9 26 -8 7 -21 26 -22 33 -1 2 7 -2 10 -12 6 -22 -8 -20 9 2 29 23
21 33 22 26 2 -4 -8 -1 -15 4 -15 18 0 24 20 12 35 -15 18 -9 19 24 3 22 -9
29 -8 46 7 22 20 26 35 9 35 -6 0 -13 -9 -16 -20 -5 -20 -15 -25 -26 -14 -9
10 12 44 27 44 8 0 19 6 25 14 7 8 27 13 51 12 22 -1 40 1 40 6 0 4 9 8 20 8
11 0 20 -4 20 -10 0 -5 9 -10 20 -10 11 0 20 7 20 15 0 9 -9 15 -21 15 -19 0
-21 4 -16 36 8 47 14 52 32 28 14 -18 14 -17 6 8 -8 22 -7 28 8 33 10 3 26 14
36 25 10 11 23 20 29 20 6 0 2 -7 -8 -15 -11 -8 -16 -18 -12 -22 4 -4 12 0 17
9 6 10 17 14 31 11 22 -5 23 -5 3 10 -16 13 -17 17 -6 31 7 9 18 16 24 16 5 0
18 10 28 22 11 11 19 16 19 10 0 -7 5 -12 11 -12 5 0 7 4 4 10 -3 5 -7 39 -9
75 -1 36 -7 70 -13 76 -7 7 -9 18 -6 25 3 8 0 14 -7 14 -6 0 -8 -4 -5 -10 12
-19 -8 -10 -31 15 -13 14 -31 25 -41 25 -15 0 -16 2 -3 10 12 8 11 10 -7 10
-12 0 -29 7 -37 16 -9 8 -21 12 -27 8 -8 -4 -9 0 -4 15 5 17 3 20 -11 14 -12
-4 -15 -3 -10 5 5 8 -2 12 -22 12 -20 0 -32 7 -42 25 -7 14 -21 25 -30 25 -9
0 -27 9 -40 20 -15 13 -18 20 -9 20 11 0 11 2 -1 11 -11 8 -12 12 -2 16 6 2
12 9 12 14 0 6 -8 6 -19 -1 -24 -12 -61 -13 -61 -1 0 4 19 13 43 18 l42 10
-57 -1 c-32 0 -58 -4 -58 -8 0 -5 5 -8 12 -8 6 0 9 -2 6 -5 -7 -7 -87 38 -116
65 -12 12 -27 18 -32 15 -6 -4 -7 1 -3 12 6 15 4 16 -9 5 -11 -9 -18 -10 -23
-2 -3 5 -15 10 -27 10 -12 0 -22 8 -25 21 -4 14 -12 19 -24 16 -10 -3 -17 0
-16 6 1 7 -10 11 -28 10 -28 -2 -28 -2 -5 5 33 10 14 20 -30 17 -19 -1 -39 1
-45 5 -5 5 -30 13 -55 19 l-45 10 50 -4 c35 -3 44 -2 30 4 -11 5 -51 11 -90
12 l-70 3 90 6 90 6 -85 3 c-58 2 -79 5 -65 11 16 7 17 9 3 9 -9 1 -20 -4 -23
-9 -7 -11 -125 -7 -144 4 -6 4 -11 1 -11 -6 0 -11 -2 -11 -8 0 -7 10 -15 10
-36 2 -18 -7 -33 -7 -46 0 -10 5 -25 9 -32 9 -7 -1 -5 -3 5 -6z m887 -293 c0
-5 -4 -10 -9 -10 -6 0 -13 5 -16 10 -3 6 1 10 9 10 9 0 16 -4 16 -10z m-685
-48 c-9 -9 74 -32 120 -33 39 -1 39 -2 10 -9 -23 -6 -15 -8 37 -9 36 0 68 -6
70 -11 2 -6 14 -12 28 -15 14 -3 26 -9 28 -15 2 -5 16 -10 30 -11 24 0 25 -1
7 -9 -17 -6 -14 -9 17 -15 20 -4 42 -4 49 1 8 4 10 3 5 -4 -5 -8 1 -12 18 -12
14 0 28 -4 31 -10 4 -6 -7 -8 -27 -4 -25 4 -29 3 -18 -5 8 -6 34 -11 58 -11
24 0 41 -4 38 -9 -3 -4 -27 -7 -53 -6 -31 1 -35 1 -10 -2 20 -2 37 -9 37 -16
0 -8 3 -8 12 1 14 14 68 16 68 2 0 -5 9 -10 19 -10 10 0 21 -7 25 -15 3 -8 15
-15 26 -15 11 0 20 -4 20 -10 0 -5 15 -16 33 -23 l32 -14 -35 -11 c-20 -7 -42
-21 -50 -32 -18 -26 -30 -26 -23 0 3 11 12 20 21 20 13 0 14 2 3 13 -11 10
-14 10 -18 0 -3 -7 -13 -13 -23 -13 -10 0 -22 -4 -25 -10 -3 -5 1 -10 9 -10 9
0 16 -6 16 -14 0 -22 -18 -29 -23 -9 -3 13 -5 11 -6 -6 -1 -18 -5 -22 -21 -18
-22 6 -28 -8 -7 -17 6 -3 -3 -3 -20 0 -21 3 -33 1 -33 -5 0 -6 8 -11 17 -11
14 0 14 -3 -5 -20 -12 -11 -34 -20 -49 -20 -22 0 -25 -2 -13 -10 12 -8 11 -10
-7 -10 -17 0 -21 -4 -16 -16 5 -15 3 -15 -20 1 -34 22 -37 21 -54 -12 -9 -18
-11 -29 -4 -31 6 -2 9 -8 6 -12 -3 -5 -12 -7 -20 -3 -9 3 -15 -1 -15 -10 0
-11 -7 -13 -22 -9 -20 5 -21 3 -10 -10 11 -14 10 -17 -8 -23 -11 -3 -18 -11
-15 -16 4 -5 -1 -9 -9 -9 -9 0 -16 6 -16 14 0 8 -5 18 -11 22 -9 5 -10 -1 -5
-19 5 -20 3 -25 -8 -21 -8 3 -17 25 -21 50 -4 28 -10 42 -17 38 -8 -5 -9 3 -5
27 4 21 4 29 -2 20 -6 -9 -11 -10 -15 -2 -4 6 0 18 8 27 9 8 16 21 15 27 0 9
-2 9 -6 0 -8 -20 -43 8 -43 35 0 12 -7 25 -15 28 -10 4 -15 20 -15 44 0 21 -4
40 -9 42 -6 2 -5 24 0 56 6 30 8 59 5 65 -2 7 -5 -1 -7 -18 -2 -27 -3 -27 -9
10 -7 34 -7 31 -5 -20 1 -33 0 -49 -2 -36 -4 18 -7 21 -13 10 -6 -8 -7 7 -4
39 3 32 0 52 -6 52 -5 0 -10 -8 -11 -17 -1 -34 -18 25 -25 85 -6 64 -13 80
-15 36 l-1 -29 -7 30 c-9 38 -6 44 19 38 12 -3 18 -8 15 -11z m373 -508 c-9
-9 -21 -13 -27 -9 -16 10 -3 25 22 25 20 0 20 -1 5 -16z m422 -44 c0 -5 -5
-10 -11 -10 -5 0 -7 5 -4 10 3 6 8 10 11 10 2 0 4 -4 4 -10z m-36 -35 c-4 -8
-8 -15 -10 -15 -2 0 -4 7 -4 15 0 8 4 15 10 15 5 0 7 -7 4 -15z m36 5 c0 -5
-4 -10 -10 -10 -5 0 -10 5 -10 10 0 6 5 10 10 10 6 0 10 -4 10 -10z"/>
<path d="M9768 10293 c7 -3 16 -2 19 1 4 3 -2 6 -13 5 -11 0 -14 -3 -6 -6z"/>
<path d="M9823 10283 c9 -2 23 -2 30 0 6 3 -1 5 -18 5 -16 0 -22 -2 -12 -5z"/>
<path d="M10005 10220 c-3 -5 3 -10 14 -10 12 0 21 5 21 10 0 6 -6 10 -14 10
-8 0 -18 -4 -21 -10z"/>
<path d="M10321 10074 c0 -11 3 -14 6 -6 3 7 2 16 -1 19 -3 4 -6 -2 -5 -13z"/>
<path d="M10360 10069 c0 -6 9 -13 20 -16 11 -3 20 -10 20 -15 0 -5 5 -6 10
-3 7 4 2 14 -11 26 -25 21 -39 24 -39 8z"/>
<path d="M10330 10040 c-8 -5 -10 -10 -5 -10 6 0 17 5 25 10 8 5 11 10 5 10
-5 0 -17 -5 -25 -10z"/>
<path d="M9880 9946 c0 -17 14 -29 23 -20 8 8 -3 34 -14 34 -5 0 -9 -6 -9 -14z"/>
<path d="M10138 9873 c6 -2 18 -2 25 0 6 3 1 5 -13 5 -14 0 -19 -2 -12 -5z"/>
<path d="M9970 9789 c0 -5 5 -7 10 -4 6 3 10 8 10 11 0 2 -4 4 -10 4 -5 0 -10
-5 -10 -11z"/>
<path d="M9990 9756 c0 -9 5 -16 10 -16 6 0 10 4 10 9 0 6 -4 13 -10 16 -5 3
-10 -1 -10 -9z"/>
<path d="M9978 10673 c7 -3 16 -2 19 1 4 3 -2 6 -13 5 -11 0 -14 -3 -6 -6z"/>
<path d="M11447 10663 c4 -11 2 -14 -5 -9 -7 4 -12 3 -12 -2 0 -6 11 -9 24 -8
24 1 25 20 1 30 -10 3 -12 0 -8 -11z"/>
<path d="M15992 10650 c0 -14 2 -19 5 -12 2 6 2 18 0 25 -3 6 -5 1 -5 -13z"/>
<path d="M11500 10650 c0 -5 5 -10 11 -10 5 0 7 5 4 10 -3 6 -8 10 -11 10 -2
0 -4 -4 -4 -10z"/>
<path d="M18320 10642 c0 -20 40 -47 60 -40 7 2 -3 16 -24 31 -32 25 -36 26
-36 9z"/>
<path d="M11385 10635 c8 -22 8 -22 1 -85 -5 -40 -4 -38 9 14 14 55 14 61 -1
75 -15 15 -16 14 -9 -4z"/>
<path d="M15970 10616 c0 -8 4 -17 9 -20 5 -4 7 3 4 14 -6 23 -13 26 -13 6z"/>
<path d="M11500 10598 c0 -13 5 -30 10 -38 8 -11 10 -5 8 23 -2 39 -18 53 -18
15z"/>
<path d="M10130 10585 c14 -7 27 -11 30 -9 6 7 -22 24 -40 23 -9 0 -5 -6 10
-14z"/>
<path d="M11363 10540 c0 -25 2 -35 4 -22 2 12 2 32 0 45 -2 12 -4 2 -4 -23z"/>
<path d="M18409 10578 c-5 -16 -3 -58 3 -58 4 0 8 14 8 30 0 17 -2 30 -5 30
-3 0 -5 -1 -6 -2z"/>
<path d="M15973 10546 c1 -17 9 -31 17 -33 10 -3 11 -2 4 4 -7 4 -14 19 -17
33 -4 22 -5 21 -4 -4z"/>
<path d="M15991 10544 c0 -11 3 -14 6 -6 3 7 2 16 -1 19 -3 4 -6 -2 -5 -13z"/>
<path d="M15851 10543 c-1 -6 -4 -20 -7 -30 -5 -17 -5 -17 6 0 6 10 9 23 6 30
-3 9 -5 9 -5 0z"/>
<path d="M10305 10510 c-3 -5 -1 -10 4 -10 6 0 11 5 11 10 0 6 -2 10 -4 10 -3
0 -8 -4 -11 -10z"/>
<path d="M8218 10474 c5 -9 8 -39 6 -67 l-3 -52 9 45 c13 69 12 90 -5 90 -12
0 -14 -4 -7 -16z"/>
<path d="M18481 10474 c0 -11 3 -14 6 -6 3 7 2 16 -1 19 -3 4 -6 -2 -5 -13z"/>
<path d="M10298 10473 c7 -3 16 -2 19 1 4 3 -2 6 -13 5 -11 0 -14 -3 -6 -6z"/>
<path d="M11367 10473 c-4 -3 -7 -15 -7 -25 0 -17 2 -18 15 -4 8 8 15 19 15
25 0 12 -13 15 -23 4z"/>
<path d="M11488 10448 c-4 -9 -4 -43 -1 -75 5 -49 8 -54 14 -30 9 33 -3 130
-13 105z"/>
<path d="M15861 10455 c0 -5 6 -21 14 -35 8 -14 14 -20 14 -15 0 6 -6 21 -14
35 -8 14 -14 21 -14 15z"/>
<path d="M15991 10444 c0 -11 3 -14 6 -6 3 7 2 16 -1 19 -3 4 -6 -2 -5 -13z"/>
<path d="M16035 10430 c4 -6 11 -8 16 -5 14 9 11 15 -7 15 -8 0 -12 -5 -9 -10z"/>
<path d="M15852 10393 c-17 -30 15 -129 34 -110 5 5 4 11 -2 15 -20 13 -35 74
-23 89 7 7 9 16 6 19 -3 3 -10 -3 -15 -13z"/>
<path d="M16014 10367 c-1 -30 1 -36 6 -22 7 16 9 14 10 -15 l2 -35 8 30 c7
29 8 29 10 -10 1 -22 8 -62 15 -90 l14 -50 -7 50 c-4 28 -6 78 -6 112 1 35 -3
60 -7 57 -5 -3 -9 -12 -9 -20 0 -8 -4 -14 -10 -14 -5 0 -10 11 -10 25 0 43
-15 27 -16 -18z"/>
<path d="M18480 10380 c0 -5 5 -10 10 -10 6 0 10 5 10 10 0 6 -4 10 -10 10 -5
0 -10 -4 -10 -10z"/>
<path d="M15877 10373 c-7 -11 10 -40 18 -31 4 4 3 14 -3 24 -5 9 -12 12 -15
7z"/>
<path d="M18518 10363 c7 -3 16 -2 19 1 4 3 -2 6 -13 5 -11 0 -14 -3 -6 -6z"/>
<path d="M10503 10353 c9 -2 23 -2 30 0 6 3 -1 5 -18 5 -16 0 -22 -2 -12 -5z"/>
<path d="M11320 10345 c0 -8 5 -15 10 -15 6 0 10 7 10 15 0 8 -4 15 -10 15 -5
0 -10 -7 -10 -15z"/>
<path d="M16072 10325 c0 -16 2 -22 5 -12 2 9 2 23 0 30 -3 6 -5 -1 -5 -18z"/>
<path d="M11512 10320 c0 -14 2 -19 5 -12 2 6 2 18 0 25 -3 6 -5 1 -5 -13z"/>
<path d="M11297 10324 c-4 -4 -7 -17 -7 -28 1 -19 1 -20 11 -3 11 19 8 43 -4
31z"/>
<path d="M11466 10290 c-6 -30 -5 -45 3 -48 14 -5 14 -39 0 -44 -6 -2 -9 -13
-7 -23 4 -18 6 -18 17 5 9 18 10 44 3 90 l-8 65 -8 -45z"/>
<path d="M11319 10299 c-6 -27 4 -69 12 -53 3 5 2 25 -1 44 -5 33 -6 33 -11 9z"/>
<path d="M11493 10285 c18 -95 19 -135 3 -141 -20 -8 -21 -24 -1 -24 8 0 17
10 20 23 6 25 -10 155 -21 166 -3 3 -4 -7 -1 -24z"/>
<path d="M18560 10279 c0 -5 5 -7 10 -4 6 3 10 8 10 11 0 2 -4 4 -10 4 -5 0
-10 -5 -10 -11z"/>
<path d="M8270 10265 c0 -8 5 -15 10 -15 6 0 10 7 10 15 0 8 -4 15 -10 15 -5
0 -10 -7 -10 -15z"/>
<path d="M8312 10250 c0 -19 2 -27 5 -17 2 9 2 25 0 35 -3 9 -5 1 -5 -18z"/>
<path d="M10650 10269 c0 -13 39 -21 56 -11 14 8 9 10 -20 14 -20 2 -36 1 -36
-3z"/>
<path d="M11292 10240 c14 -22 24 -19 15 5 -4 8 -11 15 -17 15 -6 0 -6 -7 2
-20z"/>
<path d="M10690 10230 c20 -13 33 -13 25 0 -3 6 -14 10 -23 10 -15 0 -15 -2
-2 -10z"/>
<path d="M18566 10215 c-3 -9 0 -15 9 -15 8 0 15 7 15 15 0 8 -4 15 -9 15 -5
0 -11 -7 -15 -15z"/>
<path d="M11280 10213 c0 -15 18 -35 23 -27 3 5 -1 15 -9 22 -8 7 -14 9 -14 5z"/>
<path d="M15928 10173 c5 -59 10 -63 11 -10 1 26 -3 47 -7 47 -4 0 -6 -17 -4
-37z"/>
<path d="M10768 10188 c5 -5 16 -8 23 -6 8 3 3 7 -10 11 -17 4 -21 3 -13 -5z"/>
<path d="M11282 10150 c0 -14 2 -19 5 -12 2 6 2 18 0 25 -3 6 -5 1 -5 -13z"/>
<path d="M11302 10145 c0 -16 2 -22 5 -12 2 9 2 23 0 30 -3 6 -5 -1 -5 -18z"/>
<path d="M9529 10138 c-5 -84 -4 -118 3 -118 13 0 9 -48 -4 -53 -7 -3 -2 -6
11 -6 21 -1 23 2 17 32 -12 54 -18 101 -17 130 0 26 -8 39 -10 15z"/>
<path d="M10820 10098 c0 -19 2 -20 10 -8 13 19 13 30 0 30 -5 0 -10 -10 -10
-22z"/>
<path d="M10855 10063 c2 -29 -1 -55 -6 -58 -5 -4 -9 4 -9 16 0 12 -3 20 -6
16 -9 -9 5 -77 16 -77 10 0 33 100 25 108 -3 3 -6 -3 -7 -14 0 -10 -4 -1 -8
21 -7 36 -7 35 -5 -12z"/>
<path d="M15950 10105 c0 -8 5 -15 10 -15 6 0 10 7 10 15 0 8 -4 15 -10 15 -5
0 -10 -7 -10 -15z"/>
<path d="M8392 10080 c0 -19 2 -27 5 -17 2 9 2 25 0 35 -3 9 -5 1 -5 -18z"/>
<path d="M15935 10075 c3 -22 2 -35 -2 -28 -5 6 -9 -11 -10 -38 -1 -62 10 -63
24 -2 9 38 8 54 -3 78 l-14 30 5 -40z"/>
<path d="M16090 10090 c0 -5 5 -10 10 -10 6 0 10 5 10 10 0 6 -4 10 -10 10 -5
0 -10 -4 -10 -10z"/>
<path d="M16152 10080 c0 -14 2 -19 5 -12 2 6 2 18 0 25 -3 6 -5 1 -5 -13z"/>
<path d="M11282 10070 c0 -14 2 -19 5 -12 2 6 2 18 0 25 -3 6 -5 1 -5 -13z"/>
<path d="M16121 10034 c0 -11 3 -14 6 -6 3 7 2 16 -1 19 -3 4 -6 -2 -5 -13z"/>
<path d="M11207 9963 c2 -43 3 -97 3 -120 0 -23 4 -44 10 -48 6 -3 7 0 4 10
-4 8 -2 21 3 28 16 20 14 104 -3 157 -9 28 -17 50 -18 50 -2 0 -1 -35 1 -77z
m23 -45 c0 -49 -5 -47 -13 5 -3 20 -2 37 4 37 5 0 9 -19 9 -42z"/>
<path d="M11244 10007 c3 -16 6 -36 6 -43 0 -8 3 -14 8 -14 4 0 6 19 4 41 -3
29 -1 40 7 35 6 -4 11 -3 11 3 0 5 -9 9 -21 8 -17 -1 -20 -6 -15 -30z"/>
<path d="M15972 10010 c0 -19 2 -27 5 -17 2 9 2 25 0 35 -3 9 -5 1 -5 -18z"/>
<path d="M16150 10027 c0 -9 -4 -17 -10 -17 -14 0 -13 -47 2 -56 7 -5 8 -3 4
5 -5 7 -2 26 4 42 7 16 10 32 6 36 -3 3 -6 -1 -6 -10z"/>
<path d="M8391 10014 c0 -11 3 -14 6 -6 3 7 2 16 -1 19 -3 4 -6 -2 -5 -13z"/>
<path d="M11421 10004 c0 -11 3 -14 6 -6 3 7 2 16 -1 19 -3 4 -6 -2 -5 -13z"/>
<path d="M11428 9928 l-1 -53 -7 40 c-7 37 -7 36 -4 -10 2 -27 7 -63 10 -79 5
-20 4 -27 -5 -22 -6 4 -11 16 -11 27 0 10 -7 19 -15 19 -12 0 -15 -10 -12 -44
3 -49 17 -75 17 -33 0 15 5 27 10 27 6 0 10 -5 10 -11 0 -5 4 -8 9 -5 8 5 14
196 6 196 -3 0 -6 -24 -7 -52z m-31 -120 c-3 -7 -5 -2 -5 12 0 14 2 19 5 13 2
-7 2 -19 0 -25z"/>
<path d="M8460 9950 c0 -5 5 -10 10 -10 6 0 10 5 10 10 0 6 -4 10 -10 10 -5 0
-10 -4 -10 -10z"/>
<path d="M10791 9934 c0 -11 3 -14 6 -6 3 7 2 16 -1 19 -3 4 -6 -2 -5 -13z"/>
<path d="M16005 9940 c-4 -6 -3 -36 1 -68 8 -53 8 -55 14 -22 3 19 1 38 -4 41
-5 4 -6 19 -4 33 6 28 3 33 -7 16z"/>
<path d="M16131 9924 c0 -11 3 -14 6 -6 3 7 2 16 -1 19 -3 4 -6 -2 -5 -13z"/>
<path d="M16152 9920 c0 -14 2 -19 5 -12 2 6 2 18 0 25 -3 6 -5 1 -5 -13z"/>
<path d="M10750 9920 c0 -5 7 -10 15 -10 8 0 15 5 15 10 0 6 -7 10 -15 10 -8
0 -15 -4 -15 -10z"/>
<path d="M11251 9914 c0 -11 3 -14 6 -6 3 7 2 16 -1 19 -3 4 -6 -2 -5 -13z"/>
<path d="M16160 9869 c0 -6 6 -9 13 -6 20 7 33 -4 41 -35 8 -34 -7 -37 -22 -5
-10 21 -11 21 -9 -5 1 -15 3 -25 6 -23 2 3 10 -3 17 -13 13 -16 13 -16 14 1 0
9 4 17 9 17 12 0 0 52 -15 67 -16 16 -54 17 -54 2z"/>
<path d="M8472 9850 c0 -14 2 -19 5 -12 2 6 2 18 0 25 -3 6 -5 1 -5 -13z"/>
<path d="M18802 9850 c0 -14 2 -19 5 -12 2 6 2 18 0 25 -3 6 -5 1 -5 -13z"/>
<path d="M9610 9835 c0 -8 5 -15 10 -15 6 0 10 7 10 15 0 8 -4 15 -10 15 -5 0
-10 -7 -10 -15z"/>
<path d="M10655 9841 c-6 -11 9 -23 19 -14 9 9 7 23 -3 23 -6 0 -12 -4 -16 -9z"/>
<path d="M10680 9810 c-13 -8 -12 -10 3 -10 9 0 17 5 17 10 0 12 -1 12 -20 0z"/>
<path d="M16033 9807 c4 -10 7 -23 7 -28 0 -5 5 -9 10 -9 15 0 12 20 -7 38
-16 16 -16 16 -10 -1z"/>
<path d="M9613 9784 c-3 -8 -1 -20 6 -27 8 -8 11 -4 11 16 0 30 -7 35 -17 11z"/>
<path d="M11204 9748 c0 -28 4 -41 9 -33 4 8 4 29 -1 47 -9 32 -9 31 -8 -14z"/>
<path d="M16010 9766 c0 -8 -3 -23 -7 -33 -6 -17 -6 -17 10 -1 19 18 23 48 7
48 -5 0 -10 -6 -10 -14z"/>
<path d="M16231 9764 c0 -11 3 -14 6 -6 3 7 2 16 -1 19 -3 4 -6 -2 -5 -13z"/>
<path d="M8530 9761 c0 -5 -3 -16 -6 -24 -3 -9 2 -16 14 -19 15 -4 18 -1 14
19 -4 23 -22 43 -22 24z"/>
<path d="M18880 9760 c0 -17 17 -47 23 -40 2 3 -2 16 -10 30 -7 14 -13 18 -13
10z"/>
<path d="M11415 9749 c-4 -6 -3 -15 3 -21 6 -6 11 -4 15 6 7 18 -9 31 -18 15z"/>
<path d="M16231 9714 c0 -11 3 -14 6 -6 3 7 2 16 -1 19 -3 4 -6 -2 -5 -13z"/>
<path d="M11373 9693 c-14 -30 -11 -38 12 -30 15 6 22 57 8 57 -5 0 -14 -12
-20 -27z"/>
<path d="M11431 9698 c0 -9 -8 -24 -17 -33 -9 -9 -14 -19 -11 -22 12 -11 38
27 34 49 -3 14 -5 16 -6 6z"/>
<path d="M16082 9680 c0 -14 2 -19 5 -12 2 6 2 18 0 25 -3 6 -5 1 -5 -13z"/>
<path d="M16104 9606 c1 -78 2 -80 29 -87 34 -9 38 12 5 26 -19 8 -24 20 -29
75 l-6 65 1 -79z"/>
<path d="M9681 9644 c0 -11 3 -14 6 -6 3 7 2 16 -1 19 -3 4 -6 -2 -5 -13z"/>
<path d="M16082 9630 c0 -14 2 -19 5 -12 2 6 2 18 0 25 -3 6 -5 1 -5 -13z"/>
<path d="M16251 9624 c0 -11 3 -14 6 -6 3 7 2 16 -1 19 -3 4 -6 -2 -5 -13z"/>
<path d="M16276 9623 c-4 -9 -2 -21 4 -27 7 -7 10 -2 10 17 0 31 -5 34 -14 10z"/>
<path d="M16300 9629 c0 -5 5 -7 10 -4 6 3 10 8 10 11 0 2 -4 4 -10 4 -5 0
-10 -5 -10 -11z"/>
<path d="M16121 9594 c0 -11 3 -14 6 -6 3 7 2 16 -1 19 -3 4 -6 -2 -5 -13z"/>
<path d="M16300 9579 c0 -11 -4 -17 -10 -14 -6 3 -10 -4 -10 -17 1 -22 1 -22
15 -4 14 19 21 56 10 56 -3 0 -5 -9 -5 -21z"/>
<path d="M10295 9570 c3 -5 8 -10 11 -10 2 0 4 5 4 10 0 6 -5 10 -11 10 -5 0
-7 -4 -4 -10z"/>
<path d="M9681 9524 c0 -11 3 -14 6 -6 3 7 2 16 -1 19 -3 4 -6 -2 -5 -13z"/>
<path d="M11352 9520 c0 -14 2 -19 5 -12 2 6 2 18 0 25 -3 6 -5 1 -5 -13z"/>
<path d="M11161 9508 c0 -9 -4 -25 -7 -35 -5 -17 -5 -17 6 0 6 10 9 25 7 35
-4 15 -5 15 -6 0z"/>
<path d="M16080 9510 c0 -5 5 -10 10 -10 6 0 10 5 10 10 0 6 -4 10 -10 10 -5
0 -10 -4 -10 -10z"/>
<path d="M16300 9500 c0 -5 5 -10 11 -10 5 0 7 5 4 10 -3 6 -8 10 -11 10 -2 0
-4 -4 -4 -10z"/>
<path d="M11130 9484 c0 -8 5 -12 10 -9 6 3 10 10 10 16 0 5 -4 9 -10 9 -5 0
-10 -7 -10 -16z"/>
<path d="M10193 9483 c9 -2 23 -2 30 0 6 3 -1 5 -18 5 -16 0 -22 -2 -12 -5z"/>
<path d="M16131 9483 c22 -3 28 -11 33 -44 3 -22 4 -50 0 -63 -3 -14 -1 -27 6
-31 15 -10 10 126 -5 137 -5 4 -21 7 -35 6 l-25 -1 26 -4z"/>
<path d="M10124 9458 c-4 -13 -14 -28 -22 -34 -13 -9 -13 -12 2 -17 10 -4 16
-1 16 8 0 7 9 17 20 20 24 7 25 18 6 34 -12 10 -16 8 -22 -11z"/>
<path d="M16320 9466 c0 -9 5 -16 10 -16 6 0 10 4 10 9 0 6 -4 13 -10 16 -5 3
-10 -1 -10 -9z"/>
<path d="M16375 9470 c3 -5 10 -10 16 -10 5 0 9 5 9 10 0 6 -7 10 -16 10 -8 0
-12 -4 -9 -10z"/>
<path d="M19041 9444 c0 -11 3 -14 6 -6 3 7 2 16 -1 19 -3 4 -6 -2 -5 -13z"/>
<path d="M11162 9430 c0 -14 2 -19 5 -12 2 6 2 18 0 25 -3 6 -5 1 -5 -13z"/>
<path d="M11143 9405 c0 -22 2 -30 4 -17 2 12 2 30 0 40 -3 9 -5 -1 -4 -23z"/>
<path d="M16355 9431 c4 -7 10 -36 14 -64 6 -47 31 -81 31 -40 0 15 -2 16 -11
3 -7 -11 -9 -2 -7 33 1 35 -3 52 -16 65 -11 9 -15 11 -11 3z"/>
<path d="M16197 9403 c-4 -3 -7 -24 -7 -46 0 -22 3 -37 8 -33 5 6 11 86 6 86
0 0 -4 -3 -7 -7z"/>
<path d="M8666 9385 c4 -8 8 -15 10 -15 2 0 4 7 4 15 0 8 -4 15 -10 15 -5 0
-7 -7 -4 -15z"/>
<path d="M8700 9363 c0 -21 4 -43 8 -50 4 -6 7 11 7 38 0 27 -3 49 -7 49 -5 0
-8 -17 -8 -37z"/>
<path d="M11350 9380 c0 -5 -7 -7 -16 -3 -14 5 -15 1 -10 -28 4 -19 4 -29 -1
-22 -4 6 -8 -29 -8 -78 0 -81 -7 -109 -18 -76 -2 6 -3 3 -1 -8 2 -11 4 -36 5
-55 1 -69 28 59 29 138 0 39 4 72 9 72 5 0 11 -4 13 -10 2 -5 3 10 3 35 0 25
-1 45 -2 45 -2 0 -3 -4 -3 -10z"/>
<path d="M16391 9364 c0 -11 3 -14 6 -6 3 7 2 16 -1 19 -3 4 -6 -2 -5 -13z"/>
<path d="M9778 9363 c7 -3 16 -2 19 1 4 3 -2 6 -13 5 -11 0 -14 -3 -6 -6z"/>
<path d="M19121 9354 c0 -11 3 -14 6 -6 3 7 2 16 -1 19 -3 4 -6 -2 -5 -13z"/>
<path d="M11126 9328 c-5 -20 -6 -44 -3 -55 3 -10 6 -3 7 17 l2 35 8 -30 c7
-27 8 -27 8 -5 0 14 -3 36 -8 50 -7 24 -7 23 -14 -12z"/>
<path d="M9873 9333 c9 -2 23 -2 30 0 6 3 -1 5 -18 5 -16 0 -22 -2 -12 -5z"/>
<path d="M9798 9323 c7 -3 16 -2 19 1 4 3 -2 6 -13 5 -11 0 -14 -3 -6 -6z"/>
<path d="M11341 9251 c-1 -28 3 -41 8 -35 6 5 6 24 1 44 l-8 35 -1 -44z"/>
<path d="M16435 9230 c3 -5 8 -10 11 -10 2 0 4 5 4 10 0 6 -5 10 -11 10 -5 0
-7 -4 -4 -10z"/>
<path d="M16467 9233 c-4 -3 -7 -19 -7 -35 0 -17 -4 -27 -10 -23 -17 10 -11
-11 8 -28 16 -15 17 -12 17 39 0 30 0 54 -1 54 0 0 -4 -3 -7 -7z"/>
<path d="M16257 9216 c-4 -10 -3 -24 3 -31 5 -6 7 -15 3 -18 -3 -4 -1 -7 5 -7
7 0 12 -9 12 -19 0 -10 6 -21 14 -24 24 -10 27 6 5 29 -12 13 -24 38 -28 56
-6 27 -8 30 -14 14z"/>
<path d="M16420 9200 c0 -5 5 -10 11 -10 5 0 7 5 4 10 -3 6 -8 10 -11 10 -2 0
-4 -4 -4 -10z"/>
<path d="M11340 9181 c0 -11 4 -22 9 -25 4 -3 6 6 3 19 -5 30 -12 33 -12 6z"/>
<path d="M16241 9147 c-1 -38 16 -67 40 -67 8 0 5 6 -5 13 -10 8 -22 31 -26
53 l-8 39 -1 -38z"/>
<path d="M11060 9150 c0 -5 5 -10 10 -10 6 0 10 5 10 10 0 6 -4 10 -10 10 -5
0 -10 -4 -10 -10z"/>
<path d="M14328 9153 c7 -3 16 -2 19 1 4 3 -2 6 -13 5 -11 0 -14 -3 -6 -6z"/>
<path d="M14373 9153 c9 -2 23 -2 30 0 6 3 -1 5 -18 5 -16 0 -22 -2 -12 -5z"/>
<path d="M14465 9150 c-13 -6 -15 -9 -5 -9 8 0 22 4 30 9 18 12 2 12 -25 0z"/>
<path d="M14551 9151 c-8 -5 5 -7 35 -4 27 3 51 7 53 9 9 8 -75 3 -88 -5z"/>
<path d="M14830 9150 c36 -11 50 -11 50 0 0 6 -17 10 -37 9 -34 -1 -35 -2 -13
-9z"/>
<path d="M14950 9150 c-45 -5 -36 -7 48 -7 56 0 101 1 100 2 -9 8 -101 11
-148 5z"/>
<path d="M15119 9147 c5 -5 26 -7 47 -5 l39 3 -47 5 c-26 3 -43 1 -39 -3z"/>
<path d="M15360 9148 c0 -10 69 -9 94 1 11 4 -4 7 -38 7 -31 -1 -56 -4 -56 -8z"/>
<path d="M15520 9148 c0 -10 88 -9 115 1 13 5 -4 8 -47 8 -38 -1 -68 -4 -68
-9z"/>
<path d="M15773 9153 c9 -2 15 -9 12 -14 -7 -11 42 -11 70 0 15 6 11 9 -20 14
-47 8 -92 8 -62 0z"/>
<path d="M16028 9153 c7 -3 16 -2 19 1 4 3 -2 6 -13 5 -11 0 -14 -3 -6 -6z"/>
<path d="M14248 9143 c6 -2 18 -2 25 0 6 3 1 5 -13 5 -14 0 -19 -2 -12 -5z"/>
<path d="M14668 9143 c6 -2 18 -2 25 0 6 3 1 5 -13 5 -14 0 -19 -2 -12 -5z"/>
<path d="M14768 9143 c6 -2 18 -2 25 0 6 3 1 5 -13 5 -14 0 -19 -2 -12 -5z"/>
<path d="M15928 9143 c6 -2 18 -2 25 0 6 3 1 5 -13 5 -14 0 -19 -2 -12 -5z"/>
<path d="M16065 9140 c3 -5 8 -10 11 -10 2 0 4 5 4 10 0 6 -5 10 -11 10 -5 0
-7 -4 -4 -10z"/>
<path d="M11084 9110 c-4 -16 -10 -30 -15 -30 -5 0 -9 -15 -9 -33 0 -17 -4
-48 -10 -67 -5 -19 -6 -38 -1 -43 5 -5 11 17 15 50 8 65 22 110 44 136 14 15
13 17 -2 17 -10 0 -19 -11 -22 -30z"/>
<path d="M14295 9130 l-30 -8 30 -2 30 -3 -35 -7 c-30 -6 -31 -8 -8 -9 14 0
35 -4 45 -7 15 -5 15 -4 3 5 -12 9 -9 11 15 12 l30 1 -30 9 c-21 6 -7 7 45 4
60 -3 67 -2 35 5 -48 10 -89 10 -130 0z"/>
<path d="M14570 9130 l-55 -7 75 -1 c52 -1 70 1 60 8 -8 5 -17 9 -20 8 -3 -1
-30 -4 -60 -8z"/>
<path d="M15970 9130 c-30 -6 -26 -7 23 -7 33 0 52 4 45 9 -14 9 -18 8 -68 -2z"/>
<path d="M11041 9114 c0 -11 3 -14 6 -6 3 7 2 16 -1 19 -3 4 -6 -2 -5 -13z"/>
<path d="M14488 9123 c7 -3 16 -2 19 1 4 3 -2 6 -13 5 -11 0 -14 -3 -6 -6z"/>
<path d="M11335 9107 c-4 -10 -5 -21 -1 -24 10 -10 18 4 13 24 -4 17 -4 17
-12 0z"/>
<path d="M16065 9110 c-3 -5 -1 -10 4 -10 6 0 11 5 11 10 0 6 -2 10 -4 10 -3
0 -8 -4 -11 -10z"/>
<path d="M16008 9103 c6 -2 18 -2 25 0 6 3 1 5 -13 5 -14 0 -19 -2 -12 -5z"/>
<path d="M16300 9086 c0 -2 7 -7 16 -10 8 -3 12 -2 9 4 -6 10 -25 14 -25 6z"/>
<path d="M19218 9083 c12 -2 32 -2 45 0 12 2 2 4 -23 4 -25 0 -35 -2 -22 -4z"/>
<path d="M8829 9054 c12 -15 21 -33 21 -40 0 -8 7 -14 15 -14 8 0 15 3 15 7 0
15 -46 73 -58 73 -9 0 -7 -8 7 -26z"/>
<path d="M11041 9064 c0 -11 3 -14 6 -6 3 7 2 16 -1 19 -3 4 -6 -2 -5 -13z"/>
<path d="M14170 9069 c0 -5 5 -7 10 -4 6 3 10 8 10 11 0 2 -4 4 -10 4 -5 0
-10 -5 -10 -11z"/>
<path d="M16490 9071 c0 -5 5 -13 10 -16 6 -3 10 -2 10 4 0 5 -4 13 -10 16 -5
3 -10 2 -10 -4z"/>
<path d="M16337 9063 c-11 -11 -8 -33 10 -70 16 -35 16 -36 -6 -54 -13 -11
-19 -19 -15 -19 5 1 21 11 37 23 27 23 27 23 8 44 -15 16 -17 23 -8 32 9 10 9
12 -3 9 -10 -2 -14 4 -13 20 3 23 1 26 -10 15z"/>
<path d="M16520 9059 c0 -5 5 -7 10 -4 6 3 10 8 10 11 0 2 -4 4 -10 4 -5 0
-10 -5 -10 -11z"/>
<path d="M11272 9040 c0 -14 2 -19 5 -12 2 6 2 18 0 25 -3 6 -5 1 -5 -13z"/>
<path d="M16552 9030 c0 -14 2 -19 5 -12 2 6 2 18 0 25 -3 6 -5 1 -5 -13z"/>
<path d="M11092 9010 c0 -19 2 -27 5 -17 2 9 2 25 0 35 -3 9 -5 1 -5 -18z"/>
<path d="M16060 9020 c0 -5 5 -10 11 -10 5 0 7 5 4 10 -3 6 -8 10 -11 10 -2 0
-4 -4 -4 -10z"/>
<path d="M16520 9020 c0 -9 9 -23 20 -33 25 -21 25 -9 0 23 -13 17 -20 20 -20
10z"/>
<path d="M14170 9010 c0 -5 5 -10 11 -10 5 0 7 5 4 10 -3 6 -8 10 -11 10 -2 0
-4 -4 -4 -10z"/>
<path d="M19295 9010 c-3 -5 1 -10 10 -10 9 0 13 5 10 10 -3 6 -8 10 -10 10
-2 0 -7 -4 -10 -10z"/>
<path d="M8860 8955 c0 -19 4 -35 8 -35 4 0 6 16 4 35 -2 19 -6 35 -8 35 -2 0
-4 -16 -4 -35z"/>
<path d="M16321 8974 c0 -11 3 -14 6 -6 3 7 2 16 -1 19 -3 4 -6 -2 -5 -13z"/>
<path d="M14320 8970 c0 -5 10 -10 23 -10 18 0 19 2 7 10 -19 13 -30 13 -30 0z"/>
<path d="M15768 8973 c7 -3 16 -2 19 1 4 3 -2 6 -13 5 -11 0 -14 -3 -6 -6z"/>
<path d="M11070 8950 c0 -11 2 -20 4 -20 2 0 6 9 9 20 3 11 1 20 -4 20 -5 0
-9 -9 -9 -20z"/>
<path d="M15943 8963 c15 -2 39 -2 55 0 15 2 2 4 -28 4 -30 0 -43 -2 -27 -4z"/>
<path d="M15793 8953 c-47 -6 -41 -23 7 -23 29 0 40 4 40 15 0 8 -3 14 -7 13
-5 0 -23 -3 -40 -5z"/>
<path d="M16060 8950 c0 -5 5 -10 10 -10 6 0 10 5 10 10 0 6 -4 10 -10 10 -5
0 -10 -4 -10 -10z"/>
<path d="M14280 8941 c0 -10 24 -21 43 -21 7 0 3 7 -7 15 -22 17 -36 19 -36 6z"/>
<path d="M19362 8925 c0 -16 2 -22 5 -12 2 9 2 23 0 30 -3 6 -5 -1 -5 -18z"/>
<path d="M16013 8923 c9 -2 23 -2 30 0 6 3 -1 5 -18 5 -16 0 -22 -2 -12 -5z"/>
<path d="M8900 8910 c0 -5 5 -10 10 -10 6 0 10 5 10 10 0 6 -4 10 -10 10 -5 0
-10 -4 -10 -10z"/>
<path d="M11045 8910 c3 -5 8 -10 11 -10 2 0 4 5 4 10 0 6 -5 10 -11 10 -5 0
-7 -4 -4 -10z"/>
<path d="M16590 8909 c0 -5 5 -7 10 -4 6 3 10 8 10 11 0 2 -4 4 -10 4 -5 0
-10 -5 -10 -11z"/>
<path d="M16621 8891 c-10 -22 -9 -35 1 -61 14 -33 14 -33 13 28 0 34 -1 62
-1 62 -1 0 -7 -13 -13 -29z"/>
<path d="M16406 8883 c9 -38 14 -42 14 -10 0 14 -5 29 -10 32 -7 4 -8 -3 -4
-22z"/>
<path d="M11241 8868 c0 -28 2 -30 9 -13 12 28 12 45 0 45 -5 0 -10 -15 -9
-32z"/>
<path d="M19390 8886 c0 -9 5 -16 10 -16 6 0 10 4 10 9 0 6 -4 13 -10 16 -5 3
-10 -1 -10 -9z"/>
<path d="M8927 8883 c-6 -9 -6 -63 -1 -63 4 0 34 57 34 65 0 8 -28 6 -33 -2z"/>
<path d="M11060 8870 c0 -19 3 -21 12 -12 9 9 9 15 0 24 -9 9 -12 7 -12 -12z"/>
<path d="M11042 8855 c0 -16 2 -22 5 -12 2 9 2 23 0 30 -3 6 -5 -1 -5 -18z"/>
<path d="M16587 8859 c4 -13 8 -18 11 -10 2 7 -1 18 -6 23 -8 8 -9 4 -5 -13z"/>
<path d="M19361 8864 c0 -11 3 -14 6 -6 3 7 2 16 -1 19 -3 4 -6 -2 -5 -13z"/>
<path d="M11262 8841 c-15 -35 -17 -73 -4 -126 11 -43 12 -42 16 23 1 24 -1
37 -6 30 -5 -8 -8 -3 -8 15 0 16 4 26 8 23 4 -3 9 11 9 30 1 19 0 34 -1 34 0
0 -7 -13 -14 -29z"/>
<path d="M19398 8843 c7 -3 16 -2 19 1 4 3 -2 6 -13 5 -11 0 -14 -3 -6 -6z"/>
<path d="M11056 8814 c-10 -38 0 -41 12 -5 6 17 7 31 3 31 -5 0 -12 -12 -15
-26z"/>
<path d="M16430 8807 c0 -20 5 -39 11 -42 7 -5 8 5 3 32 -9 51 -14 54 -14 10z"/>
<path d="M16412 8785 c0 -16 2 -22 5 -12 2 9 2 23 0 30 -3 6 -5 -1 -5 -18z"/>
<path d="M16461 8794 c0 -11 3 -14 6 -6 3 7 2 16 -1 19 -3 4 -6 -2 -5 -13z"/>
<path d="M10898 8753 c6 -2 18 -2 25 0 6 3 1 5 -13 5 -14 0 -19 -2 -12 -5z"/>
<path d="M16651 8744 c0 -11 3 -14 6 -6 3 7 2 16 -1 19 -3 4 -6 -2 -5 -13z"/>
<path d="M16681 8744 c0 -11 3 -14 6 -6 3 7 2 16 -1 19 -3 4 -6 -2 -5 -13z"/>
<path d="M16701 8744 c0 -11 3 -14 6 -6 3 7 2 16 -1 19 -3 4 -6 -2 -5 -13z"/>
<path d="M10920 8740 l-45 -7 42 -1 c23 -1 45 3 48 8 3 6 5 9 3 8 -2 0 -23 -4
-48 -8z"/>
<path d="M11230 8730 c-10 -7 -12 -12 -4 -17 6 -5 14 -15 17 -23 3 -8 6 0 6
18 1 36 2 35 -19 22z"/>
<path d="M16482 8715 c0 -16 2 -22 5 -12 2 9 2 23 0 30 -3 6 -5 -1 -5 -18z"/>
<path d="M10880 8710 c0 -5 9 -10 20 -10 11 0 20 5 20 10 0 6 -9 10 -20 10
-11 0 -20 -4 -20 -10z"/>
<path d="M16675 8710 c-3 -5 -1 -10 4 -10 6 0 11 5 11 10 0 6 -2 10 -4 10 -3
0 -8 -4 -11 -10z"/>
<path d="M16701 8703 c-1 -12 -7 -24 -13 -26 -10 -4 -10 -6 0 -6 15 -1 26 23
19 41 -3 7 -6 3 -6 -9z"/>
<path d="M19440 8670 c0 -19 3 -21 12 -12 9 9 9 15 0 24 -9 9 -12 7 -12 -12z"/>
<path d="M10698 8673 c6 -2 18 -2 25 0 6 3 1 5 -13 5 -14 0 -19 -2 -12 -5z"/>
<path d="M11222 8660 c0 -14 2 -19 5 -12 2 6 2 18 0 25 -3 6 -5 1 -5 -13z"/>
<path d="M16485 8670 c-6 -10 15 -50 27 -50 5 0 3 9 -4 20 -7 10 -8 23 -4 27
5 4 11 2 13 -5 3 -7 11 -19 19 -26 8 -8 14 -20 14 -27 0 -7 3 -9 7 -6 3 4 -2
23 -13 42 -18 33 -46 46 -59 25z"/>
<path d="M11271 8633 c-1 -37 -18 -44 -23 -10 -3 13 -6 6 -9 -21 l-5 -42 24
23 c17 18 22 32 19 53 -4 29 -4 29 -6 -3z"/>
<path d="M16748 8562 c25 -55 39 -69 18 -17 -10 22 -22 45 -27 50 -6 6 -2 -9
9 -33z"/>
<path d="M19040 8590 c0 -3 9 -11 21 -18 21 -13 59 -8 59 8 0 5 15 6 34 3 19
-3 42 0 52 6 15 8 -3 10 -73 8 -51 -1 -93 -4 -93 -7z"/>
<path d="M19258 8593 c7 -3 16 -2 19 1 4 3 -2 6 -13 5 -11 0 -14 -3 -6 -6z"/>
<path d="M16572 8570 c0 -14 2 -19 5 -12 2 6 2 18 0 25 -3 6 -5 1 -5 -13z"/>
<path d="M11200 8534 c0 -8 5 -12 10 -9 6 3 10 10 10 16 0 5 -4 9 -10 9 -5 0
-10 -7 -10 -16z"/>
<path d="M11255 8530 c-3 -5 1 -10 9 -10 9 0 16 5 16 10 0 6 -4 10 -9 10 -6 0
-13 -4 -16 -10z"/>
<path d="M16583 8528 c-15 -19 -22 -45 -15 -52 3 -4 12 8 19 25 14 34 12 48
-4 27z"/>
<path d="M10088 8513 c7 -3 16 -2 19 1 4 3 -2 6 -13 5 -11 0 -14 -3 -6 -6z"/>
<path d="M10205 8509 c16 -7 13 -8 -12 -6 -18 2 -33 0 -33 -5 0 -13 70 -9 84
5 11 11 7 13 -23 14 -29 0 -32 -1 -16 -8z"/>
<path d="M11191 8494 c0 -11 3 -14 6 -6 3 7 2 16 -1 19 -3 4 -6 -2 -5 -13z"/>
<path d="M18568 8503 c7 -3 16 -2 19 1 4 3 -2 6 -13 5 -11 0 -14 -3 -6 -6z"/>
<path d="M10100 8485 c-15 -8 -19 -14 -10 -15 26 0 60 12 60 21 0 13 -21 10
-50 -6z"/>
<path d="M16610 8485 c0 -8 -4 -15 -10 -15 -5 0 -10 -4 -10 -10 0 -5 7 -10 15
-10 9 0 15 9 15 25 0 14 -2 25 -5 25 -3 0 -5 -7 -5 -15z"/>
<path d="M18603 8487 c-58 -14 -54 -23 8 -18 33 2 47 6 38 11 -8 6 3 10 31 13
l45 4 -40 0 c-22 0 -59 -4 -82 -10z"/>
<path d="M10080 8450 c0 -5 5 -10 11 -10 5 0 7 5 4 10 -3 6 -8 10 -11 10 -2 0
-4 -4 -4 -10z"/>
<path d="M16834 8427 c16 -11 18 -24 14 -80 -2 -37 0 -67 4 -67 4 0 8 27 8 59
0 33 5 63 10 66 6 3 10 14 10 23 0 13 -2 14 -9 3 -6 -9 -11 -10 -15 -2 -4 6
-15 11 -24 11 -14 0 -13 -2 2 -13z"/>
<path d="M18280 8430 c-24 -8 -23 -8 8 -9 17 -1 32 4 32 9 0 11 -5 11 -40 0z"/>
<path d="M16641 8414 c0 -11 3 -14 6 -6 3 7 2 16 -1 19 -3 4 -6 -2 -5 -13z"/>
<path d="M18160 8420 c0 -5 9 -10 21 -10 11 0 17 5 14 10 -3 6 -13 10 -21 10
-8 0 -14 -4 -14 -10z"/>
<path d="M16671 8404 c0 -11 3 -14 6 -6 3 7 2 16 -1 19 -3 4 -6 -2 -5 -13z"/>
<path d="M16651 8359 c-1 -43 27 -79 60 -78 l24 1 -25 7 c-19 5 -29 19 -42 56
l-16 50 -1 -36z"/>
<path d="M16683 8356 c4 -10 7 -22 7 -27 0 -5 4 -9 9 -9 12 0 2 38 -12 47 -7
4 -8 0 -4 -11z"/>
<path d="M9778 8353 c7 -3 16 -2 19 1 4 3 -2 6 -13 5 -11 0 -14 -3 -6 -6z"/>
<path d="M17878 8353 c7 -3 16 -2 19 1 4 3 -2 6 -13 5 -11 0 -14 -3 -6 -6z"/>
<path d="M17968 8353 c7 -3 16 -2 19 1 4 3 -2 6 -13 5 -11 0 -14 -3 -6 -6z"/>
<path d="M11180 8336 c0 -9 5 -16 10 -16 6 0 10 4 10 9 0 6 -4 13 -10 16 -5 3
-10 -1 -10 -9z"/>
<path d="M16871 8334 c0 -11 3 -14 6 -6 3 7 2 16 -1 19 -3 4 -6 -2 -5 -13z"/>
<path d="M17698 8323 c12 -2 32 -2 45 0 12 2 2 4 -23 4 -25 0 -35 -2 -22 -4z"/>
<path d="M9600 8310 c0 -6 11 -8 28 -4 39 10 40 14 4 14 -18 0 -32 -5 -32 -10z"/>
<path d="M11181 8263 c-1 -12 4 -25 9 -28 12 -7 12 2 0 30 -8 19 -9 19 -9 -2z"/>
<path d="M17240 8268 c0 -4 -9 -8 -20 -8 -11 0 -20 -7 -20 -15 0 -8 9 -15 20
-15 12 0 20 7 20 16 0 12 7 15 26 11 14 -2 46 1 71 7 l46 12 -71 0 c-40 0 -72
-4 -72 -8z"/>
<path d="M17431 8271 c-7 -5 -9 -11 -5 -14 5 -3 15 1 22 9 14 16 5 18 -17 5z"/>
<path d="M11156 8209 c-4 -23 -5 -44 -2 -46 2 -2 7 14 11 37 4 23 5 43 2 46
-2 3 -7 -14 -11 -37z"/>
<path d="M9366 8232 c-2 -4 13 -6 35 -4 21 2 39 6 39 8 0 7 -69 4 -74 -4z"/>
<path d="M11178 8170 c-3 -16 -1 -35 4 -42 4 -8 8 4 8 30 0 49 -6 55 -12 12z"/>
<path d="M16912 8173 c-23 -26 -26 -53 -7 -60 6 -1 11 9 11 23 1 14 10 31 19
38 10 7 14 16 9 19 -5 3 -20 -6 -32 -20z"/>
<path d="M11148 8095 c-3 -13 -2 -22 2 -20 11 7 20 45 10 45 -4 0 -10 -11 -12
-25z"/>
<path d="M11160 8050 c0 -5 7 -10 15 -10 8 0 15 5 15 10 0 6 -7 10 -15 10 -8
0 -15 -4 -15 -10z"/>
<path d="M16845 7950 c-3 -5 -2 -10 4 -10 5 0 13 5 16 10 3 6 2 10 -4 10 -5 0
-13 -4 -16 -10z"/>
<path d="M16810 7923 c0 -5 4 -14 9 -21 7 -11 9 -11 14 1 3 8 3 18 0 21 -9 8
-23 7 -23 -1z"/>
<path d="M11102 7875 c0 -16 2 -22 5 -12 2 9 2 23 0 30 -3 6 -5 -1 -5 -18z"/>
<path d="M16808 7873 c7 -3 16 -2 19 1 4 3 -2 6 -13 5 -11 0 -14 -3 -6 -6z"/>
<path d="M16802 7825 c0 -16 2 -22 5 -12 2 9 2 23 0 30 -3 6 -5 -1 -5 -18z"/>
<path d="M11107 7810 c-4 -14 -6 -36 -6 -50 1 -18 4 -14 10 14 10 44 6 75 -4
36z"/>
<path d="M16730 7705 c-6 -8 -10 -21 -8 -31 2 -11 7 -6 15 15 13 34 11 38 -7
16z"/>
<path d="M11055 7619 c-4 -6 -5 -13 -2 -16 7 -7 27 6 27 18 0 12 -17 12 -25
-2z"/>
<path d="M16720 7551 c0 -6 4 -13 10 -16 6 -3 7 1 4 9 -7 18 -14 21 -14 7z"/>
<path d="M11490 7380 c0 -5 7 -10 15 -10 8 0 15 5 15 10 0 6 -7 10 -15 10 -8
0 -15 -4 -15 -10z"/>
<path d="M11250 7370 l-195 -6 208 -2 c137 -1 206 1 202 8 -3 6 -9 9 -13 8 -4
-1 -95 -5 -202 -8z"/>
<path d="M11470 7350 l-35 -7 43 -2 c23 0 42 4 42 9 0 6 -3 9 -7 9 -5 -1 -24
-5 -43 -9z"/>
<path d="M11158 7343 c23 -2 61 -2 85 0 23 2 4 4 -43 4 -47 0 -66 -2 -42 -4z"/>
<path d="M11568 7283 c6 -2 18 -2 25 0 6 3 1 5 -13 5 -14 0 -19 -2 -12 -5z"/>
<path d="M11581 7254 c0 -11 3 -14 6 -6 3 7 2 16 -1 19 -3 4 -6 -2 -5 -13z"/>
<path d="M11581 7134 c0 -11 3 -14 6 -6 3 7 2 16 -1 19 -3 4 -6 -2 -5 -13z"/>
<path d="M11433 7043 c9 -2 23 -2 30 0 6 3 -1 5 -18 5 -16 0 -22 -2 -12 -5z"/>
<path d="M11040 7019 c0 -10 70 -15 110 -8 28 5 30 7 10 9 -59 5 -120 5 -120
-1z"/>
<path d="M11250 7021 c0 -5 9 -11 19 -14 14 -3 18 -1 14 9 -6 15 -33 19 -33 5z"/>
<path d="M11313 7023 c-28 -11 -11 -18 35 -15 62 5 80 22 22 21 -25 0 -51 -3
-57 -6z"/>
<path d="M11436 7014 c-5 -12 -2 -15 10 -10 8 3 18 6 20 6 3 0 2 5 -1 10 -9
15 -22 12 -29 -6z"/>
<path d="M16080 6431 c0 -14 29 -22 56 -15 38 10 28 24 -16 24 -22 0 -40 -4
-40 -9z"/>
<path d="M15720 6350 l45 -7 -40 -2 c-22 -2 -51 -6 -65 -10 -25 -7 -25 -7 -2
-13 12 -3 22 -2 22 3 0 5 17 9 38 10 20 1 48 4 62 8 24 7 24 7 -9 14 -18 4
-48 6 -65 5 -25 -1 -23 -2 14 -8z"/>
<path d="M15338 6273 c7 -3 16 -2 19 1 4 3 -2 6 -13 5 -11 0 -14 -3 -6 -6z"/>
<path d="M15380 6259 c0 -5 5 -7 10 -4 6 3 10 8 10 11 0 2 -4 4 -10 4 -5 0
-10 -5 -10 -11z"/>
<path d="M15463 6263 c9 -2 25 -2 35 0 9 3 1 5 -18 5 -19 0 -27 -2 -17 -5z"/>
<path d="M14898 6193 c12 -2 32 -2 45 0 12 2 2 4 -23 4 -25 0 -35 -2 -22 -4z"/>
<path d="M14880 6166 c0 -18 6 -19 35 -6 11 5 15 9 8 9 -6 1 -18 4 -27 7 -11
4 -16 1 -16 -10z"/>
<path d="M14735 6110 c3 -5 10 -10 16 -10 5 0 9 5 9 10 0 6 -7 10 -16 10 -8 0
-12 -4 -9 -10z"/>
<path d="M14560 6102 c0 -5 14 -7 30 -4 17 2 30 6 30 8 0 2 -13 4 -30 4 -16 0
-30 -4 -30 -8z"/>
<path d="M14683 6103 c9 -2 23 -2 30 0 6 3 -1 5 -18 5 -16 0 -22 -2 -12 -5z"/>
<path d="M14313 6033 c9 -2 23 -2 30 0 6 3 -1 5 -18 5 -16 0 -22 -2 -12 -5z"/>
<path d="M14265 6010 c-3 -5 1 -10 9 -10 9 0 16 5 16 10 0 6 -4 10 -9 10 -6 0
-13 -4 -16 -10z"/>
<path d="M13625 5870 c-27 -7 -28 -8 -5 -8 14 0 34 3 45 8 25 11 2 11 -40 0z"/>
<path d="M13700 5870 c0 -5 5 -10 11 -10 5 0 7 5 4 10 -3 6 -8 10 -11 10 -2 0
-4 -4 -4 -10z"/>
<path d="M13293 5793 c9 -2 23 -2 30 0 6 3 -1 5 -18 5 -16 0 -22 -2 -12 -5z"/>
<path d="M13340 5786 c0 -9 5 -16 10 -16 6 0 10 4 10 9 0 6 -4 13 -10 16 -5 3
-10 -1 -10 -9z"/>
<path d="M13376 5784 c-9 -24 3 -32 18 -13 6 9 20 19 31 22 14 3 10 5 -11 6
-21 1 -34 -5 -38 -15z"/>
<path d="M12920 5710 c0 -5 -9 -10 -20 -10 -11 0 -20 -7 -20 -15 0 -8 9 -15
20 -15 11 0 20 7 20 15 0 8 9 15 20 15 11 0 20 5 20 10 0 6 -9 10 -20 10 -11
0 -20 -4 -20 -10z"/>
<path d="M13036 5702 c-2 -4 6 -9 20 -10 13 -1 24 3 24 8 0 12 -37 14 -44 2z"/>
<path d="M12656 5625 c-20 -15 -20 -15 0 -15 10 0 29 -3 42 -6 13 -4 22 -2 22
5 0 6 -8 12 -17 12 -10 1 -4 5 12 9 l30 8 -35 0 c-19 1 -44 -5 -54 -13z"/>
<path d="M12508 5553 c7 -3 16 -2 19 1 4 3 -2 6 -13 5 -11 0 -14 -3 -6 -6z"/>
<path d="M12320 5529 c0 -5 5 -7 10 -4 6 3 10 8 10 11 0 2 -4 4 -10 4 -5 0
-10 -5 -10 -11z"/>
<path d="M12130 5469 c28 -6 24 -7 -22 -4 -32 2 -60 -1 -63 -6 -7 -10 97 -11
135 0 24 7 24 7 -9 14 -48 10 -85 6 -41 -4z"/>
<path d="M11768 5393 c6 -2 18 -2 25 0 6 3 1 5 -13 5 -14 0 -19 -2 -12 -5z"/>
<path d="M11855 5390 c-4 -6 3 -10 14 -10 25 0 27 6 6 13 -8 4 -17 2 -20 -3z"/>
<path d="M11720 5370 c0 -5 9 -10 20 -10 11 0 20 5 20 10 0 6 -9 10 -20 10
-11 0 -20 -4 -20 -10z"/>
<path d="M11260 5310 c82 -18 98 -19 103 -7 3 9 -16 12 -67 13 -54 1 -63 0
-36 -6z"/>
<path d="M11493 5313 c15 -2 37 -2 50 0 12 2 0 4 -28 4 -27 0 -38 -2 -22 -4z"/>
<path d="M10975 5230 c3 -5 13 -10 21 -10 8 0 12 5 9 10 -3 6 -13 10 -21 10
-8 0 -12 -4 -9 -10z"/>
<path d="M10880 5200 c0 -5 7 -10 15 -10 8 0 15 5 15 10 0 6 -7 10 -15 10 -8
0 -15 -4 -15 -10z"/>
<path d="M10956 5198 c3 -4 15 -8 26 -8 12 0 18 3 14 7 -10 10 -46 11 -40 1z"/>
<path d="M6170 7048 c-14 -6 -43 -17 -65 -26 -109 -44 -210 -141 -266 -257
l-39 -82 0 -141 c0 -83 4 -143 10 -147 6 -3 10 -15 10 -26 0 -53 126 -216 200
-258 120 -70 161 -81 290 -81 108 0 140 7 227 46 53 24 67 33 134 92 36 31
100 124 126 182 33 75 41 230 16 335 -26 112 -147 265 -247 314 -106 52 -145
61 -261 60 -60 0 -121 -5 -135 -11z"/>
<path d="M16303 4252 c-8 -5 -9 -13 -3 -22 11 -17 23 -8 18 14 -2 9 -8 12 -15
8z"/>
<path d="M16400 4217 l0 -27 -120 0 c-66 0 -120 4 -120 9 0 5 -36 9 -80 8 -44
-1 -80 -4 -80 -8 0 -7 205 -19 326 -19 75 0 83 2 89 21 4 12 2 26 -4 32 -8 8
-11 4 -11 -16z"/>
<path d="M16088 4223 c7 -3 16 -2 19 1 4 3 -2 6 -13 5 -11 0 -14 -3 -6 -6z"/>
<path d="M16220 4210 l-25 -8 28 -1 c15 -1 27 4 27 9 0 6 -1 10 -2 9 -2 -1
-14 -5 -28 -9z"/>
<path d="M15933 4203 c9 -2 23 -2 30 0 6 3 -1 5 -18 5 -16 0 -22 -2 -12 -5z"/>
<path d="M16125 4159 c51 -7 292 -12 284 -5 -2 2 -78 5 -169 8 -91 2 -142 1
-115 -3z"/>
<path d="M15320 4160 c0 -5 9 -10 20 -10 11 0 20 5 20 10 0 6 -9 10 -20 10
-11 0 -20 -4 -20 -10z"/>
<path d="M15408 4163 c46 -6 40 -23 -8 -23 -22 0 -40 -4 -40 -10 0 -13 11 -13
66 1 24 6 44 15 44 19 0 10 -39 20 -70 18 -19 -1 -17 -2 8 -5z"/>
</g>
</svg>
